<?xml version="1.0" encoding="UTF-8"?>
<svg xmlns="http://www.w3.org/2000/svg" xmlns:xlink="http://www.w3.org/1999/xlink" width="194px" height="60px" viewBox="0 0 193 60" version="1.1">
<defs>
<radialGradient id="radial0" gradientUnits="userSpaceOnUse" cx="5550.910156" cy="-2688.159912" fx="5550.910156" fy="-2688.159912" r="11.7" gradientTransform="matrix(-0.460272,0.450752,0.449475,0.46158,3789.464845,-1215.419351)">
<stop offset="0.15" style="stop-color:rgb(67.058824%,1.176471%,20.392157%);stop-opacity:1;"/>
<stop offset="0.42" style="stop-color:rgb(74.509804%,15.294118%,27.058824%);stop-opacity:1;"/>
<stop offset="0.99" style="stop-color:rgb(94.117647%,39.607843%,47.058824%);stop-opacity:1;"/>
<stop offset="1" style="stop-color:rgb(94.509804%,40%,47.45098%);stop-opacity:1;"/>
</radialGradient>
<radialGradient id="radial1" gradientUnits="userSpaceOnUse" cx="5551.790039" cy="-2688.870117" fx="5551.790039" fy="-2688.870117" r="13.9" gradientTransform="matrix(-0.460272,0.450752,0.449475,0.46158,3789.464845,-1215.419351)">
<stop offset="0.15" style="stop-color:rgb(67.058824%,1.176471%,20.392157%);stop-opacity:1;"/>
<stop offset="0.42" style="stop-color:rgb(74.509804%,15.294118%,27.058824%);stop-opacity:1;"/>
<stop offset="0.99" style="stop-color:rgb(94.117647%,39.607843%,47.058824%);stop-opacity:1;"/>
<stop offset="1" style="stop-color:rgb(94.509804%,40%,47.45098%);stop-opacity:1;"/>
</radialGradient>
<radialGradient id="radial2" gradientUnits="userSpaceOnUse" cx="5552.779785" cy="-2688.899902" fx="5552.779785" fy="-2688.899902" r="14.37" gradientTransform="matrix(-0.460272,0.450752,0.449475,0.46158,3789.464845,-1215.419351)">
<stop offset="0.15" style="stop-color:rgb(67.058824%,1.176471%,20.392157%);stop-opacity:1;"/>
<stop offset="0.42" style="stop-color:rgb(74.509804%,15.294118%,27.058824%);stop-opacity:1;"/>
<stop offset="0.99" style="stop-color:rgb(94.117647%,39.607843%,47.058824%);stop-opacity:1;"/>
<stop offset="1" style="stop-color:rgb(94.509804%,40%,47.45098%);stop-opacity:1;"/>
</radialGradient>
<radialGradient id="radial3" gradientUnits="userSpaceOnUse" cx="5553.399902" cy="-2689.399902" fx="5553.399902" fy="-2689.399902" r="16.120001" gradientTransform="matrix(-0.460272,0.450752,0.449475,0.46158,3789.464845,-1215.419351)">
<stop offset="0.15" style="stop-color:rgb(67.058824%,1.176471%,20.392157%);stop-opacity:1;"/>
<stop offset="0.42" style="stop-color:rgb(74.509804%,15.294118%,27.058824%);stop-opacity:1;"/>
<stop offset="0.99" style="stop-color:rgb(94.117647%,39.607843%,47.058824%);stop-opacity:1;"/>
<stop offset="1" style="stop-color:rgb(94.509804%,40%,47.45098%);stop-opacity:1;"/>
</radialGradient>
<radialGradient id="radial4" gradientUnits="userSpaceOnUse" cx="5549.169922" cy="-2693.320068" fx="5549.169922" fy="-2693.320068" r="25.969999" gradientTransform="matrix(-0.460272,0.450752,0.449475,0.46158,3789.464845,-1215.419351)">
<stop offset="0.15" style="stop-color:rgb(67.058824%,1.176471%,20.392157%);stop-opacity:1;"/>
<stop offset="0.42" style="stop-color:rgb(74.509804%,15.294118%,27.058824%);stop-opacity:1;"/>
<stop offset="0.99" style="stop-color:rgb(94.117647%,39.607843%,47.058824%);stop-opacity:1;"/>
<stop offset="1" style="stop-color:rgb(94.509804%,40%,47.45098%);stop-opacity:1;"/>
</radialGradient>
<radialGradient id="radial5" gradientUnits="userSpaceOnUse" cx="5554.430176" cy="-2693.22998" fx="5554.430176" fy="-2693.22998" r="20.450001" gradientTransform="matrix(-0.460272,0.450752,0.449475,0.46158,3789.464845,-1215.419351)">
<stop offset="0.15" style="stop-color:rgb(67.058824%,1.176471%,20.392157%);stop-opacity:1;"/>
<stop offset="0.42" style="stop-color:rgb(74.509804%,15.294118%,27.058824%);stop-opacity:1;"/>
<stop offset="0.99" style="stop-color:rgb(94.117647%,39.607843%,47.058824%);stop-opacity:1;"/>
<stop offset="1" style="stop-color:rgb(94.509804%,40%,47.45098%);stop-opacity:1;"/>
</radialGradient>
<radialGradient id="radial6" gradientUnits="userSpaceOnUse" cx="5553.72998" cy="-2697.060059" fx="5553.72998" fy="-2697.060059" r="20.83" gradientTransform="matrix(-0.460272,0.450752,0.449475,0.46158,3789.464845,-1215.419351)">
<stop offset="0.15" style="stop-color:rgb(67.058824%,1.176471%,20.392157%);stop-opacity:1;"/>
<stop offset="0.42" style="stop-color:rgb(74.509804%,15.294118%,27.058824%);stop-opacity:1;"/>
<stop offset="0.99" style="stop-color:rgb(94.117647%,39.607843%,47.058824%);stop-opacity:1;"/>
<stop offset="1" style="stop-color:rgb(94.509804%,40%,47.45098%);stop-opacity:1;"/>
</radialGradient>
<radialGradient id="radial7" gradientUnits="userSpaceOnUse" cx="5549.700195" cy="-2697.409912" fx="5549.700195" fy="-2697.409912" r="25.93" gradientTransform="matrix(-0.460272,0.450752,0.449475,0.46158,3789.464845,-1215.419351)">
<stop offset="0.15" style="stop-color:rgb(67.058824%,1.176471%,20.392157%);stop-opacity:1;"/>
<stop offset="0.42" style="stop-color:rgb(74.509804%,15.294118%,27.058824%);stop-opacity:1;"/>
<stop offset="0.99" style="stop-color:rgb(94.117647%,39.607843%,47.058824%);stop-opacity:1;"/>
<stop offset="1" style="stop-color:rgb(94.509804%,40%,47.45098%);stop-opacity:1;"/>
</radialGradient>
<radialGradient id="radial8" gradientUnits="userSpaceOnUse" cx="5548.370117" cy="-2698.75" fx="5548.370117" fy="-2698.75" r="29.469999" gradientTransform="matrix(-0.460272,0.450752,0.449475,0.46158,3789.464845,-1215.419351)">
<stop offset="0.15" style="stop-color:rgb(67.058824%,1.176471%,20.392157%);stop-opacity:1;"/>
<stop offset="0.42" style="stop-color:rgb(74.509804%,15.294118%,27.058824%);stop-opacity:1;"/>
<stop offset="0.99" style="stop-color:rgb(94.117647%,39.607843%,47.058824%);stop-opacity:1;"/>
<stop offset="1" style="stop-color:rgb(94.509804%,40%,47.45098%);stop-opacity:1;"/>
</radialGradient>
<radialGradient id="radial9" gradientUnits="userSpaceOnUse" cx="5550.620117" cy="-2689.300049" fx="5550.620117" fy="-2689.300049" r="10.68" gradientTransform="matrix(-0.460272,0.450752,0.449475,0.46158,3789.464845,-1215.419351)">
<stop offset="0.15" style="stop-color:rgb(67.058824%,1.176471%,20.392157%);stop-opacity:1;"/>
<stop offset="0.42" style="stop-color:rgb(74.509804%,15.294118%,27.058824%);stop-opacity:1;"/>
<stop offset="0.99" style="stop-color:rgb(94.117647%,39.607843%,47.058824%);stop-opacity:1;"/>
<stop offset="1" style="stop-color:rgb(94.509804%,40%,47.45098%);stop-opacity:1;"/>
</radialGradient>
<radialGradient id="radial10" gradientUnits="userSpaceOnUse" cx="5549.629883" cy="-2690.280029" fx="5549.629883" fy="-2690.280029" r="10.73" gradientTransform="matrix(-0.460272,0.450752,0.449475,0.46158,3789.464845,-1215.419351)">
<stop offset="0.15" style="stop-color:rgb(67.058824%,1.176471%,20.392157%);stop-opacity:1;"/>
<stop offset="0.42" style="stop-color:rgb(74.509804%,15.294118%,27.058824%);stop-opacity:1;"/>
<stop offset="0.99" style="stop-color:rgb(94.117647%,39.607843%,47.058824%);stop-opacity:1;"/>
<stop offset="1" style="stop-color:rgb(94.509804%,40%,47.45098%);stop-opacity:1;"/>
</radialGradient>
<radialGradient id="radial11" gradientUnits="userSpaceOnUse" cx="5549.629883" cy="-2690.290039" fx="5549.629883" fy="-2690.290039" r="10.72" gradientTransform="matrix(-0.460272,0.450752,0.449475,0.46158,3789.464845,-1215.419351)">
<stop offset="0.15" style="stop-color:rgb(67.058824%,1.176471%,20.392157%);stop-opacity:1;"/>
<stop offset="0.42" style="stop-color:rgb(74.509804%,15.294118%,27.058824%);stop-opacity:1;"/>
<stop offset="0.99" style="stop-color:rgb(94.117647%,39.607843%,47.058824%);stop-opacity:1;"/>
<stop offset="1" style="stop-color:rgb(94.509804%,40%,47.45098%);stop-opacity:1;"/>
</radialGradient>
<radialGradient id="radial12" gradientUnits="userSpaceOnUse" cx="5549.629883" cy="-2690.280029" fx="5549.629883" fy="-2690.280029" r="10.81" gradientTransform="matrix(-0.460272,0.450752,0.449475,0.46158,3789.464845,-1215.419351)">
<stop offset="0.15" style="stop-color:rgb(67.058824%,1.176471%,20.392157%);stop-opacity:1;"/>
<stop offset="0.42" style="stop-color:rgb(74.509804%,15.294118%,27.058824%);stop-opacity:1;"/>
<stop offset="0.99" style="stop-color:rgb(94.117647%,39.607843%,47.058824%);stop-opacity:1;"/>
<stop offset="1" style="stop-color:rgb(94.509804%,40%,47.45098%);stop-opacity:1;"/>
</radialGradient>
<radialGradient id="radial13" gradientUnits="userSpaceOnUse" cx="5549.629883" cy="-2690.280029" fx="5549.629883" fy="-2690.280029" r="10.72" gradientTransform="matrix(-0.460272,0.450752,0.449475,0.46158,3789.464845,-1215.419351)">
<stop offset="0.15" style="stop-color:rgb(67.058824%,1.176471%,20.392157%);stop-opacity:1;"/>
<stop offset="0.42" style="stop-color:rgb(74.509804%,15.294118%,27.058824%);stop-opacity:1;"/>
<stop offset="0.99" style="stop-color:rgb(94.117647%,39.607843%,47.058824%);stop-opacity:1;"/>
<stop offset="1" style="stop-color:rgb(94.509804%,40%,47.45098%);stop-opacity:1;"/>
</radialGradient>
<radialGradient id="radial14" gradientUnits="userSpaceOnUse" cx="5549.629883" cy="-2690.280029" fx="5549.629883" fy="-2690.280029" r="10.72" gradientTransform="matrix(-0.460272,0.450752,0.449475,0.46158,3789.464845,-1215.419351)">
<stop offset="0.15" style="stop-color:rgb(67.058824%,1.176471%,20.392157%);stop-opacity:1;"/>
<stop offset="0.42" style="stop-color:rgb(74.509804%,15.294118%,27.058824%);stop-opacity:1;"/>
<stop offset="0.99" style="stop-color:rgb(94.117647%,39.607843%,47.058824%);stop-opacity:1;"/>
<stop offset="1" style="stop-color:rgb(94.509804%,40%,47.45098%);stop-opacity:1;"/>
</radialGradient>
<radialGradient id="radial15" gradientUnits="userSpaceOnUse" cx="5544.5" cy="-2697.929932" fx="5544.5" fy="-2697.929932" r="30.280001" gradientTransform="matrix(-0.460272,0.450752,0.449475,0.46158,3789.464845,-1215.419351)">
<stop offset="0.15" style="stop-color:rgb(67.058824%,1.176471%,20.392157%);stop-opacity:1;"/>
<stop offset="0.42" style="stop-color:rgb(74.509804%,15.294118%,27.058824%);stop-opacity:1;"/>
<stop offset="0.99" style="stop-color:rgb(94.117647%,39.607843%,47.058824%);stop-opacity:1;"/>
<stop offset="1" style="stop-color:rgb(94.509804%,40%,47.45098%);stop-opacity:1;"/>
</radialGradient>
<radialGradient id="radial16" gradientUnits="userSpaceOnUse" cx="5911.290039" cy="-1244.589966" fx="5911.290039" fy="-1244.589966" r="33.439999" gradientTransform="matrix(-0.536962,0.355337,0.35433,0.538488,3642.308942,-1394.238734)">
<stop offset="0.15" style="stop-color:rgb(67.058824%,1.176471%,20.392157%);stop-opacity:1;"/>
<stop offset="0.42" style="stop-color:rgb(74.509804%,15.294118%,27.058824%);stop-opacity:1;"/>
<stop offset="0.99" style="stop-color:rgb(94.117647%,39.607843%,47.058824%);stop-opacity:1;"/>
<stop offset="1" style="stop-color:rgb(94.509804%,40%,47.45098%);stop-opacity:1;"/>
</radialGradient>
<radialGradient id="radial17" gradientUnits="userSpaceOnUse" cx="5947.129883" cy="-762.77002" fx="5947.129883" fy="-762.77002" r="42.009998" gradientTransform="matrix(-0.556355,0.323945,0.323027,0.557936,3584.357425,-1464.690315)">
<stop offset="0.15" style="stop-color:rgb(67.058824%,1.176471%,20.392157%);stop-opacity:1;"/>
<stop offset="0.42" style="stop-color:rgb(74.509804%,15.294118%,27.058824%);stop-opacity:1;"/>
<stop offset="0.99" style="stop-color:rgb(94.117647%,39.607843%,47.058824%);stop-opacity:1;"/>
<stop offset="1" style="stop-color:rgb(94.509804%,40%,47.45098%);stop-opacity:1;"/>
</radialGradient>
<radialGradient id="radial18" gradientUnits="userSpaceOnUse" cx="5621.549805" cy="-2419.689941" fx="5621.549805" fy="-2419.689941" r="42.139999" gradientTransform="matrix(-0.476132,0.433868,0.432639,0.477484,3755.207345,-1245.238687)">
<stop offset="0.15" style="stop-color:rgb(67.058824%,1.176471%,20.392157%);stop-opacity:1;"/>
<stop offset="0.42" style="stop-color:rgb(74.509804%,15.294118%,27.058824%);stop-opacity:1;"/>
<stop offset="0.99" style="stop-color:rgb(94.117647%,39.607843%,47.058824%);stop-opacity:1;"/>
<stop offset="1" style="stop-color:rgb(94.509804%,40%,47.45098%);stop-opacity:1;"/>
</radialGradient>
<radialGradient id="radial19" gradientUnits="userSpaceOnUse" cx="5670.02002" cy="-2262.100098" fx="5670.02002" fy="-2262.100098" r="44.599998" gradientTransform="matrix(-0.484792,0.424113,0.422911,0.48617,3736.91758,-1265.961264)">
<stop offset="0.15" style="stop-color:rgb(67.058824%,1.176471%,20.392157%);stop-opacity:1;"/>
<stop offset="0.42" style="stop-color:rgb(74.509804%,15.294118%,27.058824%);stop-opacity:1;"/>
<stop offset="0.99" style="stop-color:rgb(94.117647%,39.607843%,47.058824%);stop-opacity:1;"/>
<stop offset="1" style="stop-color:rgb(94.509804%,40%,47.45098%);stop-opacity:1;"/>
</radialGradient>
<radialGradient id="radial20" gradientUnits="userSpaceOnUse" cx="5620.609863" cy="-2414.360107" fx="5620.609863" fy="-2414.360107" r="41.880001" gradientTransform="matrix(-0.476132,0.433868,0.432639,0.477484,3755.207345,-1245.238687)">
<stop offset="0.15" style="stop-color:rgb(67.058824%,1.176471%,20.392157%);stop-opacity:1;"/>
<stop offset="0.42" style="stop-color:rgb(74.509804%,15.294118%,27.058824%);stop-opacity:1;"/>
<stop offset="0.99" style="stop-color:rgb(94.117647%,39.607843%,47.058824%);stop-opacity:1;"/>
<stop offset="1" style="stop-color:rgb(94.509804%,40%,47.45098%);stop-opacity:1;"/>
</radialGradient>
</defs>
<g id="surface1">
<path style=" stroke:none;fill-rule:nonzero;fill:url(#radial0);" d="M 25.507812 44.980469 C 25.507812 44.980469 28.042969 49.929688 31.585938 51.101562 C 32.457031 51.386719 33.261719 51.199219 33.421875 50.742188 C 33.589844 50.269531 33.082031 49.507812 32.425781 49.050781 C 30.945312 48.027344 29.214844 48.089844 26.820312 46.121094 C 26.640625 45.972656 25.507812 44.980469 25.507812 44.980469 Z M 25.507812 44.980469 "/>
<path style=" stroke:none;fill-rule:nonzero;fill:url(#radial1);" d="M 29.355469 50.214844 C 31.027344 51.601562 33.375 53.476562 31.949219 54.175781 C 30.519531 54.871094 27.675781 52.269531 26.210938 49.226562 C 25.148438 47.027344 25.316406 45.039062 25.316406 45.039062 C 25.316406 45.039062 26.902344 48.175781 29.355469 50.214844 Z M 29.355469 50.214844 "/>
<path style=" stroke:none;fill-rule:nonzero;fill:url(#radial2);" d="M 28.800781 52.710938 C 29.425781 54.472656 30.199219 57.398438 28.867188 56.988281 C 27.527344 56.574219 23.769531 49.910156 24.96875 45.039062 C 24.96875 45.039062 28.171875 50.949219 28.800781 52.710938 Z M 28.800781 52.710938 "/>
<path style=" stroke:none;fill-rule:nonzero;fill:url(#radial3);" d="M 22.324219 57.902344 C 24.332031 61.882812 26.304688 55.542969 25.097656 51.566406 C 24.027344 48.078125 24.730469 44.972656 24.730469 44.972656 C 24.730469 44.972656 20.316406 53.921875 22.324219 57.902344 Z M 22.324219 57.902344 "/>
<path style=" stroke:none;fill-rule:nonzero;fill:url(#radial4);" d="M 24.453125 44.625 C 24.453125 44.625 21.171875 50.761719 20.019531 55.101562 C 19.164062 58.328125 17.292969 60.1875 16.078125 59.8125 C 14.984375 59.476562 14.46875 57.148438 14.878906 55.59375 C 15.75 52.316406 20.605469 46.277344 24.453125 44.625 Z M 24.453125 44.625 "/>
<path style=" stroke:none;fill-rule:nonzero;fill:url(#radial5);" d="M 17.214844 49.773438 C 13.671875 53.859375 9.484375 57.367188 8.246094 55.703125 C 7.019531 54.039062 7.804688 50.425781 14.589844 46.21875 C 20.964844 42.265625 24.253906 44.269531 24.253906 44.269531 C 24.253906 44.269531 21.003906 45.40625 17.214844 49.78125 Z M 17.214844 49.773438 "/>
<path style=" stroke:none;fill-rule:nonzero;fill:url(#radial6);" d="M 15.066406 45.335938 C 19.179688 43.574219 23.757812 43.289062 23.757812 43.289062 C 23.757812 43.289062 17.183594 39.644531 10.777344 41.136719 C 6.113281 42.226562 0.316406 46.304688 1.523438 48.882812 C 3.0625 52.179688 9.335938 47.800781 15.066406 45.34375 Z M 15.066406 45.335938 "/>
<path style=" stroke:none;fill-rule:nonzero;fill:url(#radial7);" d="M 13.804688 40.980469 C 8.703125 41.457031 -0.167969 40.34375 0 34.640625 C 0 34.640625 6.914062 29.582031 15.023438 34.621094 C 21.3125 38.527344 23.625 42.582031 23.625 42.582031 C 23.625 42.582031 19.691406 40.425781 13.800781 40.980469 Z M 13.804688 40.980469 "/>
<path style=" stroke:none;fill-rule:nonzero;fill:url(#radial8);" d="M 23.308594 41.019531 C 23.308594 41.019531 22.605469 31.640625 16.539062 25.496094 C 9.207031 18.070312 4.742188 19.25 3.28125 19.566406 C 0.199219 20.226562 1.480469 27.730469 6.652344 30.128906 C 16.976562 34.910156 23.308594 41.019531 23.308594 41.019531 Z M 23.308594 41.019531 "/>
<path style=" stroke:none;fill-rule:nonzero;fill:url(#radial9);" d="M 25.566406 44.859375 C 25.566406 44.859375 29.257812 48.714844 32.65625 47.972656 C 35.410156 47.367188 33.074219 46.128906 32.03125 45.890625 C 30.988281 45.652344 25.574219 44.863281 25.574219 44.863281 Z M 25.566406 44.859375 "/>
<path style=" stroke:none;fill-rule:nonzero;fill:url(#radial10);" d="M 25.597656 44.585938 C 25.597656 44.585938 30.898438 48.109375 34.027344 44.433594 C 31.453125 43.78125 31.59375 43.753906 30.257812 43.785156 C 28.132812 43.839844 26.003906 44.820312 25.597656 44.585938 Z M 25.597656 44.585938 "/>
<path style=" stroke:none;fill-rule:nonzero;fill:url(#radial11);" d="M 25.539062 44.328125 C 25.539062 44.328125 30.621094 45.34375 33.433594 41.898438 C 33.433594 41.898438 30.546875 40.96875 28.253906 42.398438 C 26.738281 43.355469 25.539062 44.328125 25.539062 44.328125 Z M 25.539062 44.328125 "/>
<path style=" stroke:none;fill-rule:nonzero;fill:url(#radial12);" d="M 25.390625 43.863281 C 25.390625 43.863281 30.675781 42.839844 31.554688 39.78125 C 31.554688 39.78125 28.976562 39.621094 27.21875 41.871094 C 25.972656 43.464844 25.398438 43.863281 25.398438 43.863281 Z M 25.390625 43.863281 "/>
<path style=" stroke:none;fill-rule:nonzero;fill:url(#radial13);" d="M 25.210938 43.769531 C 25.210938 43.769531 29.109375 41.734375 28.589844 38.671875 C 28.589844 38.671875 27.050781 38.464844 25.894531 40.78125 C 24.730469 43.089844 25.21875 43.769531 25.21875 43.769531 Z M 25.210938 43.769531 "/>
<path style=" stroke:none;fill-rule:nonzero;fill:url(#radial14);" d="M 25.082031 43.792969 C 25.082031 43.792969 26.910156 40.988281 25.117188 39.066406 C 25.117188 39.066406 22.753906 41.199219 25.082031 43.792969 Z M 25.082031 43.792969 "/>
<path style=" stroke:none;fill-rule:nonzero;fill:url(#radial15);" d="M 26.574219 20.859375 C 24.125 11.457031 16 5.613281 14.019531 7.703125 C 12.03125 9.800781 11.160156 17.269531 16.566406 25.40625 C 21.550781 32.902344 23.976562 38.84375 23.976562 38.84375 C 23.976562 38.84375 29.027344 30.265625 26.574219 20.859375 Z M 26.574219 20.859375 "/>
<path style=" stroke:none;fill-rule:nonzero;fill:url(#radial16);" d="M 26.027344 37.5625 C 26.027344 37.5625 35.519531 27.378906 35.539062 16.472656 C 35.558594 5.5625 30.695312 -1.34375 27.246094 0.414062 C 24.324219 1.902344 21.144531 5.65625 25.648438 15.941406 C 30.152344 26.226562 27.316406 34.664062 26.027344 37.5625 Z M 26.027344 37.5625 "/>
<path style=" stroke:none;fill-rule:nonzero;fill:url(#radial17);" d="M 27.289062 37.199219 C 27.289062 37.199219 38.929688 34.328125 45.625 22.457031 C 53.171875 9.089844 47.5625 1.929688 47.5625 1.929688 C 47.5625 1.929688 38.941406 7.644531 37.382812 16.117188 C 35.820312 24.585938 34.339844 29.058594 27.289062 37.195312 Z M 27.289062 37.199219 "/>
<path style=" stroke:none;fill-rule:nonzero;fill:url(#radial18);" d="M 29.792969 37.484375 C 29.792969 37.484375 51.382812 33.40625 61.160156 18.800781 C 68.675781 7.574219 55.421875 9.316406 49.824219 15.730469 C 46.847656 19.140625 40.425781 32.824219 29.792969 37.484375 Z M 29.792969 37.484375 "/>
<path style=" stroke:none;fill-rule:nonzero;fill:url(#radial19);" d="M 31.007812 38.484375 C 31.007812 38.484375 55.53125 42.257812 68.925781 31.546875 C 80.777344 22.070312 69.707031 17.394531 60.203125 23.15625 C 54.902344 26.367188 33.433594 38.792969 31.007812 38.492188 Z M 31.007812 38.484375 "/>
<path style=" stroke:none;fill-rule:nonzero;fill:url(#radial20);" d="M 33.414062 40.226562 C 33.414062 40.226562 51.066406 50.257812 70.296875 46.734375 C 80.855469 44.804688 81.304688 41.625 79.226562 39.367188 C 77.15625 37.109375 72.773438 33.554688 61.707031 35.289062 C 54.355469 36.445312 44.261719 40.769531 33.414062 40.21875 Z M 33.414062 40.226562 "/>
<path style=" stroke:none;fill-rule:nonzero;fill:rgb(0%,0%,0%);fill-opacity:1;" d="M 130.566406 44.941406 L 129.214844 44.941406 L 129.214844 45.753906 L 130.566406 45.753906 L 130.566406 51.445312 L 131.566406 51.445312 L 131.566406 42.605469 L 130.566406 42.605469 Z M 132.515625 51.445312 L 133.511719 51.445312 L 133.511719 42.605469 L 132.515625 42.605469 Z M 139.648438 44.121094 L 138.546875 44.121094 C 138.566406 43.941406 138.582031 43.769531 138.582031 43.582031 L 138.582031 43.046875 L 135.082031 43.046875 L 135.082031 43.851562 L 137.5625 43.851562 C 137.53125 44.425781 137.234375 46.675781 134.589844 48.140625 L 135.175781 48.878906 C 135.175781 48.878906 137.75 47.691406 138.425781 44.929688 L 139.65625 44.929688 L 139.65625 46.214844 L 138.308594 46.214844 L 138.308594 47.019531 L 139.65625 47.019531 L 139.65625 51.4375 L 140.652344 51.4375 L 140.652344 42.601562 L 139.65625 42.601562 L 139.65625 44.117188 Z M 141.605469 51.445312 L 142.609375 51.445312 L 142.609375 42.605469 L 141.605469 42.605469 Z M 161.648438 51.445312 L 162.648438 51.445312 L 162.648438 42.605469 L 161.648438 42.605469 Z M 159.082031 44.902344 L 156.761719 44.902344 L 156.761719 43.027344 L 155.765625 43.027344 L 155.765625 47.1875 C 155.765625 48.027344 156.105469 48.5625 157.261719 48.5625 L 160.085938 48.5625 L 160.085938 43.027344 L 159.089844 43.027344 L 159.089844 44.902344 Z M 159.082031 47.75 L 157.371094 47.75 C 156.84375 47.75 156.761719 47.601562 156.761719 47.167969 L 156.761719 45.703125 L 159.082031 45.703125 Z M 143.667969 47.882812 L 152.667969 47.882812 L 152.667969 47.070312 L 143.667969 47.070312 Z M 150.9375 45.644531 L 146.5625 45.644531 L 146.5625 45.011719 L 150.773438 45.011719 L 150.773438 42.824219 L 145.5625 42.824219 L 145.5625 43.640625 L 149.773438 43.640625 L 149.773438 44.199219 L 145.5625 44.199219 L 145.5625 46.457031 L 150.9375 46.457031 Z M 175.726562 47.585938 L 174.613281 47.585938 C 174.15625 47.585938 173.996094 47.496094 173.996094 47.058594 L 173.996094 43.980469 L 176.859375 43.980469 L 176.859375 43.167969 L 172.992188 43.167969 L 172.992188 47.078125 C 172.992188 48 173.320312 48.394531 174.503906 48.394531 L 175.84375 48.394531 C 177.101562 48.394531 178.140625 48.089844 178.140625 48.089844 L 178.03125 47.328125 C 178.03125 47.328125 176.941406 47.585938 175.726562 47.585938 Z M 171.34375 42.605469 L 170.34375 42.605469 L 170.34375 49.683594 L 171.34375 49.683594 Z M 168.367188 43.027344 L 167.371094 43.027344 L 167.371094 44.652344 L 165.195312 44.652344 L 165.195312 43.027344 L 164.191406 43.027344 L 164.191406 46.683594 C 164.191406 47.492188 164.527344 47.980469 165.691406 47.980469 L 168.359375 47.980469 L 168.359375 43.027344 Z M 167.371094 47.167969 L 165.800781 47.167969 C 165.324219 47.167969 165.195312 46.992188 165.195312 46.664062 L 165.195312 45.457031 L 167.371094 45.457031 Z M 167.125 50.832031 L 167.125 49.175781 L 166.121094 49.175781 L 166.121094 50.84375 C 166.121094 51.625 166.515625 52.148438 167.664062 52.148438 L 171.601562 52.148438 L 171.601562 51.328125 L 167.769531 51.328125 C 167.246094 51.328125 167.125 51.148438 167.125 50.824219 Z M 146.570312 50.703125 L 150.777344 50.703125 L 150.777344 48.523438 L 145.566406 48.523438 L 145.566406 49.335938 L 149.78125 49.335938 L 149.78125 49.898438 L 145.566406 49.898438 L 145.566406 52.15625 L 150.945312 52.15625 L 150.945312 51.335938 L 146.570312 51.335938 Z M 179.683594 45.453125 L 179.683594 42.605469 L 178.679688 42.605469 L 178.679688 51.445312 L 179.683594 51.445312 L 179.683594 46.265625 L 181.046875 46.265625 L 181.046875 45.453125 Z M 127.902344 45.742188 C 127.976562 45.515625 128.035156 45.285156 128.082031 45.046875 C 128.3125 43.65625 128.214844 43.011719 128.214844 43.011719 L 127.207031 43.011719 C 127.207031 43.011719 127.210938 43.289062 127.1875 43.734375 C 127.140625 44.34375 127.097656 46.523438 124.683594 48.257812 L 125.339844 48.992188 C 125.339844 48.992188 126.683594 48.128906 127.507812 46.640625 C 127.851562 46.84375 128.769531 47.507812 129.324219 48.859375 L 130.230469 48.207031 C 130.230469 48.207031 129.289062 46.523438 127.902344 45.742188 Z M 127.902344 45.742188 "/>
<path style=" stroke:none;fill-rule:evenodd;fill:rgb(0%,0%,0%);fill-opacity:1;" d="M 90.445312 15.84375 C 90.34375 15.878906 90.355469 15.792969 90.265625 15.8125 C 90.183594 14.949219 89.699219 14.484375 89.332031 13.902344 C 89.121094 13.632812 88.511719 13.464844 88.253906 13.117188 C 87.964844 13.117188 87.980469 12.8125 87.679688 12.824219 C 87.460938 12.507812 87.03125 12.398438 86.746094 12.140625 C 86.355469 12.046875 85.90625 11.917969 85.523438 11.710938 C 84.675781 11.953125 84.609375 11.324219 84.160156 10.988281 C 84.300781 10.59375 83.902344 10.207031 83.949219 9.800781 C 83.949219 9.671875 83.820312 9.683594 83.769531 9.621094 C 83.871094 9.109375 84.246094 8.96875 84.59375 8.863281 C 84.726562 8.929688 85.0625 8.839844 85.273438 8.832031 C 85.742188 8.8125 86.21875 8.882812 86.597656 8.941406 C 86.617188 9.066406 86.734375 9.03125 86.816406 9.011719 C 86.953125 9.117188 87.03125 9.285156 87.28125 9.265625 C 87.578125 9.625 88.21875 9.710938 88.246094 10.230469 C 88.496094 10.40625 88.554688 10.542969 88.820312 10.703125 C 88.980469 11.082031 89.25 11.367188 89.320312 11.78125 C 89.328125 11.839844 89.300781 11.910156 89.320312 11.960938 C 89.4375 12.347656 89.660156 12.683594 89.75 13.039062 C 89.808594 13.285156 89.769531 13.542969 89.820312 13.792969 C 89.859375 13.988281 89.996094 14.128906 90.074219 14.328125 C 90.175781 14.585938 90.207031 15.140625 90.464844 15.445312 C 90.414062 15.59375 90.503906 15.695312 90.425781 15.839844 "/>
<path style=" stroke:none;fill-rule:evenodd;fill:rgb(0%,0%,0%);fill-opacity:1;" d="M 131.515625 15.433594 C 132.332031 15.695312 133.234375 15.652344 133.523438 16.4375 C 133.613281 16.527344 133.644531 16.476562 133.773438 16.546875 C 133.722656 16.632812 133.699219 16.613281 133.742188 16.730469 C 133.625 16.710938 133.601562 16.78125 133.523438 16.800781 C 133.644531 16.851562 133.78125 17.109375 133.59375 17.160156 C 133.660156 17.238281 133.644531 17.335938 133.773438 17.269531 C 133.761719 17.457031 133.773438 17.710938 133.59375 17.8125 C 133.75 17.941406 133.613281 18.140625 133.84375 18.207031 C 133.820312 18.324219 133.792969 18.445312 133.734375 18.527344 C 133.609375 18.5625 133.644531 18.527344 133.515625 18.5625 C 133.550781 18.753906 133.441406 18.792969 133.375 18.882812 C 133.59375 19.078125 133.382812 19.25 133.34375 19.527344 C 132.449219 19.285156 131.863281 18.871094 131.40625 18.128906 L 131.046875 18.128906 C 130.789062 18.019531 130.828125 17.710938 130.757812 17.445312 C 130.699219 17.207031 130.546875 16.988281 130.539062 16.761719 C 130.539062 16.523438 130.699219 16.335938 130.679688 16.117188 C 130.796875 16.039062 130.90625 15.953125 131.039062 15.902344 C 130.96875 15.832031 131.019531 15.734375 131.039062 15.652344 C 131.21875 15.605469 131.472656 15.691406 131.503906 15.433594 "/>
<path style=" stroke:none;fill-rule:evenodd;fill:rgb(0%,0%,0%);fill-opacity:1;" d="M 107.738281 34.324219 C 107.695312 34.4375 107.738281 34.433594 107.667969 34.542969 C 106.894531 34.507812 105.894531 34.890625 105.199219 34.574219 C 105.152344 34.605469 105.089844 34.632812 105.054688 34.683594 C 104.851562 34.546875 104.613281 34.675781 104.445312 34.503906 C 103.808594 34.695312 103.0625 34.378906 102.367188 34.503906 C 102.207031 34.464844 101.890625 34.355469 101.792969 34.472656 C 101.105469 34.277344 100.496094 34.257812 99.929688 34.503906 C 99.644531 34.34375 99.496094 34.046875 99.066406 34.039062 C 99.007812 33.941406 98.894531 33.898438 98.925781 33.714844 C 98.789062 33.59375 98.566406 33.386719 98.605469 33.214844 C 98.050781 32.734375 98.300781 32.296875 98.566406 31.625 C 98.660156 31.378906 98.917969 30.960938 99.207031 30.871094 C 99.640625 30.453125 100 29.960938 100.464844 29.574219 L 100.464844 29.425781 C 101.023438 28.863281 101.503906 28.21875 102.007812 27.59375 C 102.476562 27.417969 102.605469 26.898438 103.011719 26.65625 C 103.351562 26.03125 103.851562 25.5625 104.226562 24.96875 C 104.214844 24.824219 104.226562 24.703125 104.296875 24.644531 C 103.777344 24.347656 102.507812 24.703125 101.789062 24.859375 C 101.589844 24.902344 101.421875 24.929688 101.285156 25.039062 C 100.714844 25.136719 100.121094 25.40625 99.5625 25.398438 C 99.511719 25.433594 99.484375 25.492188 99.492188 25.582031 C 98.816406 25.773438 98.390625 25.574219 97.875 25.328125 C 97.765625 25.355469 97.910156 25.40625 97.875 25.472656 C 97.644531 25.40625 97.632812 25.117188 97.304688 25.148438 C 97.203125 25.011719 97.125 24.84375 96.910156 24.824219 C 96.738281 24.515625 96.5 24.269531 96.339844 24.03125 C 95.894531 23.082031 95.960938 21.394531 96.480469 20.476562 C 96.601562 19.613281 97.074219 18.792969 97.375 18 C 97.644531 17.832031 97.710938 17.445312 97.914062 17.207031 C 98.148438 17.128906 98.339844 17.007812 98.488281 16.84375 C 99.226562 16.917969 100.191406 16.972656 100.636719 17.640625 C 100.734375 17.695312 100.792969 17.621094 100.886719 17.710938 C 100.984375 18.5625 100.46875 19.324219 100.167969 19.933594 C 100.027344 19.921875 99.988281 20.019531 99.84375 20.007812 C 99.761719 20.179688 99.503906 20.324219 99.382812 20.542969 C 99.3125 20.664062 99.316406 20.882812 99.242188 21.046875 C 99.058594 21.417969 98.816406 21.820312 98.699219 22.195312 C 98.640625 22.375 98.675781 22.621094 98.628906 22.804688 C 98.570312 23.019531 98.460938 23.136719 98.488281 23.417969 C 98.511719 23.769531 98.617188 24.269531 98.988281 24.464844 C 100.027344 24.535156 101.046875 24.289062 102 24.070312 C 102.320312 24 102.605469 23.980469 102.902344 23.929688 C 103.003906 23.910156 103.085938 23.804688 103.183594 23.785156 C 103.363281 23.742188 103.53125 23.785156 103.6875 23.75 C 103.976562 23.664062 104.464844 23.367188 105.011719 23.527344 C 105.359375 23.753906 105.738281 23.988281 106.085938 24.101562 C 106.476562 24.355469 106.605469 24.871094 106.839844 25.289062 C 106.703125 26.019531 106.214844 26.394531 105.90625 26.941406 C 105.800781 26.949219 105.757812 27.011719 105.65625 27.011719 C 105.601562 27.523438 104.960938 27.625 104.972656 28.089844 C 104.746094 28.128906 104.574219 28.398438 104.363281 28.554688 C 104.097656 29.046875 103.726562 29.425781 103.320312 29.78125 C 102.8125 30.585938 102.136719 31.265625 101.492188 32.007812 C 101.265625 32.265625 101.046875 32.574219 100.917969 32.902344 C 101.203125 33.136719 101.691406 33.039062 101.960938 33.296875 C 102.578125 33.328125 103.25 33.34375 103.828125 33.296875 C 103.890625 33.285156 103.828125 33.128906 103.96875 33.195312 C 103.949219 33.445312 104.277344 32.972656 104.328125 32.832031 C 104.472656 32.8125 104.484375 32.832031 104.582031 32.722656 C 104.691406 32.710938 104.714844 32.773438 104.792969 32.792969 C 104.871094 32.734375 105.011719 32.753906 105.042969 32.652344 C 105.660156 32.773438 106.472656 32.753906 107.089844 33.082031 C 107.359375 32.960938 107.480469 33.195312 107.699219 33.15625 C 107.816406 33.484375 108.453125 33.601562 108.414062 33.941406 C 108.390625 34.207031 108.035156 34.195312 107.734375 34.296875 "/>
<path style=" stroke:none;fill-rule:evenodd;fill:rgb(0%,0%,0%);fill-opacity:1;" d="M 182.746094 29.484375 C 182.847656 29.492188 182.898438 29.546875 182.886719 29.664062 C 182.785156 29.65625 182.730469 29.601562 182.746094 29.484375 "/>
<path style=" stroke:none;fill-rule:evenodd;fill:rgb(0%,0%,0%);fill-opacity:1;" d="M 170.734375 31.820312 C 170.792969 31.878906 170.894531 31.898438 170.945312 31.960938 C 170.945312 32.097656 170.785156 32.066406 170.65625 32.070312 C 170.652344 31.917969 170.8125 31.960938 170.726562 31.820312 "/>
<path style=" stroke:none;fill-rule:evenodd;fill:rgb(0%,0%,0%);fill-opacity:1;" d="M 169.660156 32.285156 L 169.449219 32.285156 C 169.460938 32.167969 169.640625 32.148438 169.660156 32.285156 "/>
<path style=" stroke:none;fill-rule:evenodd;fill:rgb(0%,0%,0%);fill-opacity:1;" d="M 94.140625 32.992188 C 94.195312 33.230469 94.101562 33.625 93.847656 33.675781 C 93.875 33.515625 93.984375 33.140625 94.140625 32.992188 "/>
<path style=" stroke:none;fill-rule:evenodd;fill:rgb(0%,0%,0%);fill-opacity:1;" d="M 143.886719 33.40625 C 143.953125 33.4375 144.011719 33.476562 143.996094 33.585938 C 143.855469 33.632812 143.886719 33.503906 143.886719 33.40625 "/>
<path style=" stroke:none;fill-rule:evenodd;fill:rgb(0%,0%,0%);fill-opacity:1;" d="M 143.738281 33.695312 C 143.714844 33.769531 143.628906 33.84375 143.558594 33.769531 C 143.585938 33.695312 143.6875 33.640625 143.738281 33.695312 "/>
<path style=" stroke:none;fill-rule:evenodd;fill:rgb(0%,0%,0%);fill-opacity:1;" d="M 143.277344 33.839844 C 143.5 33.863281 143.246094 34.011719 143.207031 34.089844 C 143.082031 34 143.28125 33.929688 143.277344 33.839844 "/>
<path style=" stroke:none;fill-rule:evenodd;fill:rgb(0%,0%,0%);fill-opacity:1;" d="M 142.703125 34.160156 C 142.78125 34.15625 142.820312 34.1875 142.8125 34.269531 C 142.75 34.199219 142.671875 34.277344 142.671875 34.375 C 142.5625 34.394531 142.511719 34.34375 142.53125 34.230469 C 142.582031 34.285156 142.71875 34.265625 142.710938 34.160156 "/>
<path style=" stroke:none;fill-rule:evenodd;fill:rgb(0%,0%,0%);fill-opacity:1;" d="M 142.304688 34.375 C 142.304688 34.375 142.34375 34.453125 142.335938 34.515625 C 142.125 34.40625 141.917969 34.792969 141.796875 34.546875 C 142.003906 34.503906 142.09375 34.464844 142.300781 34.367188 "/>
<path style=" stroke:none;fill-rule:evenodd;fill:rgb(0%,0%,0%);fill-opacity:1;" d="M 141.769531 34.59375 C 141.734375 34.742188 141.316406 34.878906 141.238281 34.703125 C 141.476562 34.695312 141.535156 34.601562 141.769531 34.59375 "/>
<path style=" stroke:none;fill-rule:evenodd;fill:rgb(0%,0%,0%);fill-opacity:1;" d="M 106.914062 34.722656 L 107.132812 34.722656 C 107.148438 34.851562 106.890625 34.890625 106.914062 34.722656 "/>
<path style=" stroke:none;fill-rule:evenodd;fill:rgb(0%,0%,0%);fill-opacity:1;" d="M 121.976562 35.347656 C 122.039062 35.347656 122.054688 35.304688 122.117188 35.308594 C 122.128906 35.375 122.09375 35.378906 122.046875 35.378906 C 122.058594 35.414062 122.078125 35.445312 122.117188 35.453125 C 122.085938 35.542969 121.957031 35.417969 121.976562 35.34375 "/>
<path style=" stroke:none;fill-rule:evenodd;fill:rgb(0%,0%,0%);fill-opacity:1;" d="M 121.402344 36.683594 L 121.507812 36.683594 C 121.472656 36.8125 121.570312 36.878906 121.507812 36.933594 C 121.417969 36.910156 121.382812 36.820312 121.402344 36.683594 "/>
<path style=" stroke:none;fill-rule:evenodd;fill:rgb(0%,0%,0%);fill-opacity:1;" d="M 121.082031 38.15625 C 121.125 38.167969 121.140625 38.21875 121.191406 38.226562 C 121.171875 38.289062 121.179688 38.378906 121.082031 38.367188 C 121.015625 38.304688 121.109375 38.277344 121.082031 38.15625 "/>
<path style=" stroke:none;fill-rule:evenodd;fill:rgb(0%,0%,0%);fill-opacity:1;" d="M 183.351562 46.238281 C 183.492188 46.214844 183.582031 46.527344 183.386719 46.523438 C 183.335938 46.398438 183.40625 46.359375 183.351562 46.238281 "/>
<path style=" stroke:none;fill-rule:evenodd;fill:rgb(0%,0%,0%);fill-opacity:1;" d="M 185.539062 59.316406 C 185.589844 59.328125 185.570312 59.40625 185.574219 59.457031 L 185.464844 59.457031 C 185.429688 59.34375 185.523438 59.375 185.539062 59.316406 "/>
<path style=" stroke:none;fill-rule:evenodd;fill:rgb(0%,0%,0%);fill-opacity:1;" d="M 121.441406 40.417969 C 121.441406 40.167969 121.292969 40 121.261719 39.703125 C 121.203125 39.953125 121.351562 40.207031 121.441406 40.417969 M 121.875 36.214844 C 121.917969 36.214844 121.90625 36.277344 121.945312 36.285156 C 121.957031 36.207031 122.128906 36.285156 122.15625 36.214844 C 122.15625 36.148438 122.128906 36.089844 122.085938 36.070312 C 122.078125 36.257812 121.890625 36.082031 121.867188 36.214844 M 121.765625 15.832031 C 121.890625 15.542969 122.015625 14.890625 121.945312 14.496094 C 121.808594 14.832031 121.671875 15.476562 121.765625 15.832031 M 121.835938 34.953125 C 121.945312 35.238281 121.855469 35.625 121.90625 36 C 122.007812 36.027344 122.078125 35.734375 122.117188 35.929688 C 122.324219 35.367188 122.226562 34.265625 122.335938 33.515625 C 122.328125 33.40625 122.238281 33.375 122.195312 33.304688 C 122.175781 33.1875 122.285156 33.175781 122.335938 33.230469 C 122.347656 32.953125 122.363281 32.675781 122.195312 32.582031 C 122.1875 32.492188 122.246094 32.464844 122.335938 32.476562 C 122.246094 32.046875 122.496094 31.347656 122.15625 31.039062 C 122.144531 30.960938 122.207031 30.96875 122.265625 30.96875 C 122.316406 30.761719 122.144531 30.78125 122.085938 30.683594 C 122.046875 30.574219 122.164062 30.621094 122.226562 30.613281 L 122.226562 30.324219 C 122.195312 30.285156 122.148438 30.324219 122.085938 30.25 C 122.097656 30.207031 122.175781 30.226562 122.226562 30.21875 C 122.292969 30.046875 122.054688 30 122.226562 29.929688 C 122.167969 29.839844 122.128906 30.070312 122.015625 30.039062 C 122.015625 29.898438 122.164062 29.898438 122.195312 29.785156 C 122.066406 29.492188 122.195312 29.046875 121.90625 28.75 C 122.207031 28.613281 121.75 28.316406 121.976562 28.175781 C 121.945312 28.070312 121.886719 28.226562 121.835938 28.140625 C 121.96875 27.652344 121.519531 27.308594 121.65625 26.992188 C 121.617188 26.902344 121.511719 26.871094 121.472656 26.78125 C 121.402344 26.007812 121.171875 25.140625 120.863281 24.515625 C 120.84375 24.207031 120.933594 23.652344 120.613281 23.546875 C 120.753906 23.398438 120.652344 23.257812 120.503906 23.15625 C 120.515625 23.070312 120.578125 23.039062 120.613281 22.972656 C 120.375 22.566406 120.554688 22.097656 120.25 21.753906 C 120.285156 21.664062 120.398438 21.65625 120.359375 21.503906 C 120.046875 20.992188 120.085938 19.933594 119.859375 19.453125 C 119.9375 19.472656 119.910156 19.378906 119.960938 19.378906 C 119.757812 18.933594 119.9375 18.425781 119.710938 17.871094 C 119.808594 17.96875 119.742188 17.820312 119.820312 17.800781 C 119.808594 17.730469 119.808594 17.644531 119.710938 17.65625 C 119.832031 17.414062 119.777344 17.15625 119.671875 17.046875 C 119.699219 16.980469 119.738281 17.039062 119.78125 17.046875 C 119.523438 16.324219 119.808594 15.011719 119.710938 14.386719 C 119.722656 14.304688 119.808594 14.304688 119.851562 14.347656 C 119.851562 13.851562 120.160156 13.140625 120.066406 12.65625 C 120.238281 12.527344 120.464844 12.128906 120.316406 11.902344 C 120.445312 11.851562 120.40625 11.632812 120.566406 11.613281 C 120.695312 11.097656 120.851562 10.492188 121.179688 10.101562 C 121.144531 9.75 121.5 9.4375 121.789062 9.207031 C 122.15625 9.269531 122.5625 9.277344 122.722656 9.640625 C 123.269531 9.464844 123.03125 10.167969 123.441406 10.214844 C 123.5 10.585938 123.222656 10.65625 123.332031 10.96875 C 123.0625 11.101562 123.121094 11.503906 122.941406 11.652344 C 122.949219 12.1875 122.785156 12.824219 122.582031 13.453125 C 122.773438 15.011719 122.265625 16.1875 121.828125 17.296875 C 121.765625 18.214844 121.550781 19.078125 121.828125 20.175781 C 121.726562 20.839844 122.058594 21.691406 122.078125 22.722656 C 122.296875 22.832031 122.167969 23.367188 122.1875 23.507812 C 122.199219 23.644531 122.335938 23.734375 122.367188 23.871094 C 122.367188 23.882812 122.296875 24.199219 122.4375 24.34375 C 122.601562 23.972656 122.675781 23.601562 122.621094 23.265625 C 122.960938 22.425781 124.132812 22.121094 124.949219 22.507812 C 124.980469 22.472656 125.078125 22.496094 125.050781 22.398438 C 125.171875 22.582031 125.480469 22.640625 125.625 22.902344 C 125.816406 23.257812 125.6875 23.675781 125.984375 24.050781 C 125.917969 24.25 125.746094 24.582031 125.695312 24.917969 C 125.570312 24.980469 125.457031 25.058594 125.335938 25.128906 C 124.953125 25.019531 124.414062 24.882812 124.007812 24.734375 C 123.824219 24.75 123.558594 24.769531 123.367188 24.664062 C 123.179688 24.78125 122.980469 24.878906 122.824219 25.027344 C 122.742188 24.992188 122.621094 24.992188 122.613281 24.882812 C 122.582031 25.058594 122.605469 25.417969 122.792969 25.601562 C 122.84375 26.148438 122.972656 26.644531 123.183594 27.109375 C 123.113281 27.199219 123.238281 27.257812 123.152344 27.324219 C 123.53125 28.089844 123.242188 29.019531 123.726562 29.839844 C 123.65625 29.769531 123.636719 29.839844 123.546875 29.839844 C 123.570312 29.921875 123.65625 29.949219 123.726562 29.980469 C 123.628906 30.15625 123.878906 30.335938 123.6875 30.445312 C 123.789062 30.675781 123.839844 30.941406 123.757812 31.089844 C 123.945312 32.375 123.789062 33.839844 123.6875 35.082031 C 123.667969 35.464844 123.746094 35.882812 123.578125 36.160156 C 123.621094 36.304688 123.566406 36.335938 123.648438 36.453125 C 123.480469 36.453125 123.6875 36.503906 123.648438 36.59375 C 123.53125 37.050781 123.476562 37.800781 123.539062 38.316406 C 123.539062 38.328125 123.609375 38.445312 123.609375 38.464844 C 123.605469 38.566406 123.488281 38.652344 123.46875 38.75 C 123.347656 39.398438 123.609375 40.097656 123.507812 40.730469 C 123.289062 41.179688 123.082031 41.800781 122.464844 41.84375 C 121.90625 41.882812 121.558594 41.464844 121.25 41.089844 C 121.417969 41.070312 121.144531 40.992188 121.140625 40.839844 C 121.203125 40.839844 121.21875 40.882812 121.28125 40.878906 C 120.984375 40.25 120.992188 39.566406 120.992188 39.007812 C 121.109375 38.972656 121.101562 39.066406 121.171875 39.078125 C 121.199219 39.1875 120.980469 39.355469 121.171875 39.398438 C 121.109375 39.269531 121.378906 38.882812 121.171875 38.714844 C 121.269531 38.691406 121.242188 38.785156 121.3125 38.785156 C 121.242188 38.714844 121.308594 38.691406 121.34375 38.644531 C 121.332031 38.59375 121.253906 38.613281 121.203125 38.613281 C 121.234375 38.546875 121.289062 38.496094 121.34375 38.472656 C 121.34375 38.226562 121.269531 37.527344 121.417969 37.101562 C 121.589844 37.214844 121.488281 37.417969 121.488281 37.605469 C 121.6875 37.4375 121.582031 37.078125 121.777344 36.890625 C 121.558594 36.359375 121.917969 35.949219 121.667969 35.453125 C 121.835938 35.34375 121.667969 35.050781 121.808594 34.980469 "/>
<path style=" stroke:none;fill-rule:evenodd;fill:rgb(0%,0%,0%);fill-opacity:1;" d="M 180.488281 14.277344 C 179.875 14.566406 179.175781 14.949219 179.050781 15.605469 C 178.898438 15.703125 178.816406 15.871094 178.660156 15.96875 C 178.125 15.96875 177.683594 15.949219 177.226562 15.605469 C 176.53125 15.554688 175.914062 14.917969 175.539062 14.347656 C 175.449219 14.207031 175.269531 14.03125 175.21875 13.84375 C 175.191406 13.761719 175.300781 13.5625 175.148438 13.484375 C 175.1875 13.445312 175.1875 13.359375 175.1875 13.269531 C 175.507812 12.84375 176.203125 12.785156 176.621094 12.554688 C 176.980469 12.25 177.449219 12.097656 177.765625 11.832031 C 177.964844 11.800781 178.53125 11.453125 178.769531 11.367188 C 179.097656 11.246094 179.507812 11.019531 179.742188 10.824219 C 179.90625 10.839844 180.035156 10.804688 180.0625 10.683594 C 180.34375 10.722656 180.550781 10.386719 180.855469 10.324219 C 181.21875 10.277344 181.613281 10.425781 181.96875 10.394531 C 181.96875 10.425781 182.011719 10.417969 182.042969 10.425781 C 182.082031 10.476562 182.082031 10.515625 182.042969 10.566406 C 182.714844 10.625 183.433594 11.007812 183.660156 11.714844 C 183.625 11.859375 183.625 12.167969 183.730469 12.179688 C 183.644531 12.308594 183.933594 12.671875 183.660156 12.753906 C 183.714844 12.78125 183.710938 12.871094 183.800781 12.863281 C 183.601562 13.457031 183.503906 14.058594 183.15625 14.625 C 183.152344 14.730469 183.242188 14.734375 183.226562 14.839844 C 183.113281 14.878906 183.035156 14.953125 183.046875 15.121094 C 183.003906 15.175781 182.878906 15.148438 182.835938 15.195312 C 182.914062 15.378906 182.738281 15.417969 182.765625 15.585938 C 182.699219 15.613281 182.636719 15.644531 182.550781 15.65625 C 182.566406 15.742188 182.679688 15.722656 182.660156 15.839844 C 182.441406 16.03125 182.261719 16.1875 182.160156 16.414062 C 182.167969 16.4375 182.199219 16.453125 182.199219 16.484375 C 183.214844 16.207031 184.539062 16.039062 185.601562 15.730469 C 185.582031 15.839844 186.121094 15.644531 186.355469 15.621094 C 186.707031 15.582031 187.144531 15.515625 187.578125 15.507812 C 188.078125 15.507812 188.632812 15.675781 189.113281 15.761719 C 189.203125 15.78125 189.3125 15.742188 189.402344 15.761719 C 189.777344 15.851562 190.007812 16.136719 190.445312 16.121094 C 190.640625 16.359375 190.894531 16.730469 191.019531 16.917969 C 191.082031 17.238281 190.785156 17.710938 190.980469 18.175781 C 190.914062 18.535156 190.859375 18.859375 190.585938 19.070312 C 190.523438 19.039062 190.40625 19.058594 190.375 19 C 189.90625 19.109375 189.402344 18.632812 188.910156 18.605469 C 188.289062 18.265625 187.640625 17.785156 186.902344 17.640625 C 186.6875 17.386719 186.378906 17.335938 186.039062 17.277344 C 185.789062 17.230469 185.53125 17.117188 185.253906 17.066406 C 185.125 17.039062 184.976562 17.089844 184.855469 17.066406 C 184.71875 17.03125 184.636719 16.910156 184.496094 16.882812 C 184.277344 16.851562 184.027344 16.933594 183.8125 16.921875 C 183.808594 16.863281 183.84375 16.859375 183.851562 16.8125 C 182.621094 16.433594 181.632812 16.960938 181.09375 17.78125 C 180.988281 17.769531 180.984375 17.863281 180.878906 17.851562 C 180.816406 18 180.667969 18.21875 180.488281 18.355469 C 180.382812 18.878906 179.695312 19.117188 179.445312 19.613281 C 179.363281 19.613281 179.289062 19.785156 179.226562 19.683594 C 179.117188 19.695312 179.167969 19.863281 179.015625 19.824219 C 179.015625 20.128906 178.597656 20.109375 178.722656 20.4375 C 178.539062 20.472656 178.234375 20.683594 178.042969 20.832031 C 178.320312 21.140625 178.492188 20.734375 179.007812 20.871094 C 179.347656 20.960938 179.753906 21.007812 179.832031 20.65625 C 180.253906 20.65625 180.589844 20.910156 180.976562 20.65625 C 181.640625 20.722656 182.519531 20.695312 183.273438 20.769531 C 183.296875 20.695312 183.484375 20.792969 183.453125 20.65625 C 183.691406 20.695312 183.960938 20.839844 184.027344 20.621094 C 184.296875 20.644531 184.476562 20.414062 184.746094 20.4375 C 184.777344 20.394531 184.792969 20.34375 184.777344 20.257812 C 185.09375 20.15625 185.503906 19.839844 185.890625 19.96875 C 186.078125 19.871094 186.304688 19.929688 186.535156 19.933594 C 186.527344 19.960938 186.496094 19.96875 186.496094 20.007812 C 186.558594 19.992188 186.585938 19.929688 186.675781 19.933594 C 186.675781 19.96875 186.632812 19.960938 186.605469 19.96875 C 186.875 20.070312 187.09375 20.078125 187.398438 20.1875 C 187.402344 20.246094 187.363281 20.246094 187.359375 20.296875 C 187.910156 20.394531 188.027344 20.722656 188.683594 20.761719 C 188.953125 21.03125 189.777344 20.921875 189.976562 20.800781 C 190.59375 21.03125 191.242188 20.523438 191.769531 20.910156 C 191.835938 20.898438 191.859375 20.832031 191.953125 20.839844 C 192.046875 21.238281 192.5625 21.175781 192.664062 21.632812 L 192.8125 21.632812 C 192.730469 21.785156 192.929688 21.859375 192.953125 21.992188 C 192.988281 22.121094 192.917969 22.308594 192.921875 22.535156 C 192.921875 22.769531 193.050781 23.03125 193.03125 23.179688 C 193.007812 23.347656 192.84375 23.398438 192.890625 23.613281 C 192.800781 23.722656 192.515625 23.652344 192.5 23.824219 C 192.1875 23.78125 191.9375 23.722656 191.605469 23.824219 C 191.289062 23.507812 190.714844 23.820312 190.382812 23.503906 C 189.859375 23.722656 188.980469 23.257812 188.585938 23.785156 C 188.683594 24.019531 188.253906 24.109375 188.335938 24.328125 C 188.097656 24.535156 187.925781 24.800781 187.621094 24.933594 C 187.410156 24.878906 187.160156 25.066406 187.050781 25.226562 C 186.992188 25.121094 186.882812 25.296875 186.835938 25.1875 C 186.742188 25.207031 186.703125 25.289062 186.625 25.328125 C 186.4375 25.246094 186.089844 25.375 186.121094 25.507812 C 186.078125 25.523438 185.882812 25.527344 185.980469 25.691406 C 185.710938 25.734375 185.75 26.175781 185.589844 26.375 C 185.601562 26.453125 185.683594 26.324219 185.738281 26.414062 C 185.75 26.507812 185.660156 26.507812 185.589844 26.523438 C 185.570312 26.652344 185.71875 26.613281 185.699219 26.734375 C 185.519531 26.75 185.722656 26.800781 185.699219 26.878906 C 185.414062 26.613281 185.453125 27.15625 185.484375 27.378906 C 185.230469 27.742188 185.34375 28.199219 185.304688 28.640625 C 185.261719 29.148438 185.292969 29.632812 185.164062 30.148438 C 185.195312 30.195312 185.222656 30.257812 185.273438 30.289062 C 185.125 31.136719 185.363281 31.933594 185.242188 32.988281 C 185.34375 33.226562 185.394531 33.472656 185.273438 33.671875 C 185.363281 33.832031 185.390625 34.65625 185.34375 35.039062 C 185.375 35.089844 185.375 35.167969 185.449219 35.179688 C 185.433594 35.585938 185.34375 36.070312 185.519531 36.398438 C 185.460938 36.804688 185.441406 37.082031 185.589844 37.476562 C 185.523438 37.476562 185.484375 37.542969 185.589844 37.621094 C 185.574219 37.671875 185.554688 37.621094 185.519531 37.621094 C 185.574219 38.316406 185.570312 38.671875 185.628906 39.230469 C 185.660156 39.554688 185.554688 40.097656 185.699219 40.378906 C 185.53125 40.714844 185.828125 41.128906 185.628906 41.605469 C 185.652344 41.691406 185.742188 41.703125 185.769531 41.785156 C 185.589844 43.464844 185.921875 45.722656 185.808594 47.070312 C 185.957031 47.507812 185.898438 47.878906 185.988281 48.359375 C 185.941406 48.375 185.929688 48.425781 185.878906 48.433594 C 185.976562 48.691406 186.019531 49.21875 186.019531 49.546875 C 186.019531 49.722656 185.921875 49.800781 185.988281 49.941406 C 186.03125 50.050781 185.988281 50.117188 185.988281 50.375 C 185.988281 51.070312 186.078125 52.046875 186.128906 52.75 C 185.910156 53.316406 186.238281 53.921875 185.949219 54.507812 C 186.027344 54.664062 185.9375 54.972656 186.058594 55.082031 C 185.929688 55.484375 186.058594 55.824219 185.988281 56.414062 C 185.917969 56.425781 185.890625 56.484375 185.847656 56.523438 C 185.882812 56.8125 185.921875 57.199219 185.742188 57.457031 C 185.808594 57.585938 185.921875 57.640625 186.027344 57.640625 C 185.722656 57.75 185.710938 58.289062 185.492188 58.359375 C 185.53125 58.453125 185.632812 58.476562 185.632812 58.613281 C 185.53125 58.515625 185.574219 58.769531 185.421875 58.722656 C 185.554688 58.839844 185.492188 59.15625 185.421875 59.15625 C 185.433594 59.226562 185.5 59.246094 185.492188 59.335938 C 185.3125 59.089844 185.433594 59.621094 185.203125 59.554688 C 185.175781 59.675781 185.273438 59.703125 185.203125 59.769531 C 185.164062 59.769531 185.136719 59.78125 185.132812 59.800781 C 184.835938 59.761719 184.882812 59.027344 184.589844 59.40625 C 184.605469 59.476562 184.734375 59.4375 184.699219 59.554688 C 184.617188 59.457031 184.539062 59.457031 184.449219 59.445312 C 184.425781 59.367188 184.371094 59.304688 184.378906 59.195312 C 184.347656 59.21875 184.300781 59.230469 184.238281 59.230469 C 184.289062 59.050781 184.042969 59.03125 183.917969 58.980469 C 183.800781 58.535156 183.613281 58.304688 183.34375 57.972656 C 183.421875 57.386719 183.917969 56.238281 183.703125 55.5625 C 183.878906 55.167969 183.84375 54.640625 183.882812 54.230469 C 183.960938 54.25 183.980469 54.207031 184.027344 54.199219 C 183.980469 54.128906 183.921875 54.066406 183.84375 54.019531 C 184.070312 53.644531 183.710938 53.296875 184.027344 53.011719 C 183.792969 52.839844 184.082031 52.644531 183.917969 52.398438 C 184.210938 52.246094 183.96875 51.800781 183.84375 51.605469 C 183.878906 51.582031 183.929688 51.566406 183.988281 51.566406 C 183.988281 51.417969 183.8125 51.457031 183.84375 51.285156 C 183.910156 51.285156 183.921875 51.328125 183.988281 51.324219 C 183.988281 51.070312 184.082031 50.910156 183.84375 50.820312 C 183.933594 50.582031 183.808594 50.386719 183.8125 50.175781 C 183.8125 50.109375 183.910156 50.082031 183.921875 50.03125 C 183.921875 50.050781 183.921875 49.769531 183.921875 49.78125 C 183.902344 49.632812 183.773438 49.535156 183.78125 49.355469 C 183.917969 49.285156 183.929688 49.078125 183.960938 48.882812 C 183.78125 48.839844 183.933594 49.082031 183.851562 48.992188 C 183.699219 48.992188 183.890625 48.820312 183.921875 48.78125 C 183.859375 48.714844 183.75 48.691406 183.710938 48.601562 C 183.714844 48.503906 183.769531 48.644531 183.851562 48.601562 C 183.882812 48.425781 183.761719 48.398438 183.710938 48.308594 C 183.773438 48.238281 183.75 48.089844 183.890625 48.089844 C 183.839844 47.773438 183.710938 47.695312 183.710938 47.445312 C 183.722656 47.375 183.808594 47.496094 183.820312 47.375 C 183.671875 47.246094 183.691406 47.136719 183.640625 46.941406 C 183.703125 46.878906 183.742188 46.960938 183.820312 46.980469 C 183.832031 46.671875 183.660156 46.640625 183.640625 46.296875 C 183.714844 46.316406 183.734375 46.269531 183.78125 46.265625 C 183.644531 46.160156 183.808594 45.980469 183.640625 45.902344 C 183.625 45.8125 183.691406 45.785156 183.78125 45.792969 C 183.792969 45.652344 183.570312 45.734375 183.601562 45.582031 C 183.824219 45.574219 183.78125 45.359375 183.710938 45.21875 C 183.652344 45.21875 183.621094 45.246094 183.601562 45.289062 C 183.535156 45.238281 183.644531 45.078125 183.742188 45.078125 C 183.671875 44.644531 183.917969 44.285156 183.5625 44 C 183.53125 43.933594 183.671875 43.878906 183.5625 43.859375 C 183.570312 43.8125 183.652344 43.824219 183.703125 43.824219 C 183.589844 43.65625 183.621094 43.394531 183.523438 43.285156 C 183.5625 43.214844 183.613281 43.15625 183.664062 43.101562 C 183.691406 42.949219 183.550781 42.953125 183.523438 42.851562 C 183.496094 42.714844 183.660156 42.773438 183.664062 42.671875 C 183.613281 42.285156 183.550781 41.820312 183.554688 41.523438 C 183.574219 40.941406 183.722656 40.515625 183.445312 40.121094 C 183.382812 40.078125 183.53125 39.941406 183.554688 39.871094 C 183.394531 39.644531 183.472656 39.476562 183.40625 39.15625 C 183.382812 39.257812 183.15625 39.328125 183.195312 39.117188 C 183.304688 39.089844 183.265625 39.089844 183.375 39.117188 C 183.414062 39.007812 183.433594 38.863281 183.515625 38.792969 C 183.414062 38.265625 183.664062 37.730469 183.304688 37.285156 C 183.363281 37.269531 183.371094 37.316406 183.40625 37.316406 C 183.582031 37.019531 183.375 36.753906 183.335938 36.492188 C 183.285156 36.175781 183.375 35.871094 183.195312 35.664062 C 183.152344 35.527344 182.875 35.625 182.875 35.453125 C 183.058594 35.433594 183.195312 35.367188 183.304688 35.269531 C 183.261719 35.195312 183.203125 35.128906 183.15625 35.058594 C 183.246094 34.621094 183.085938 34.039062 183.125 33.585938 C 182.988281 33.5625 183.097656 33.78125 182.945312 33.730469 C 182.855469 33.585938 183.078125 33.496094 183.15625 33.40625 C 183.023438 33.25 182.976562 33.1875 183.015625 32.902344 C 182.71875 32.714844 182.886719 32.417969 182.90625 32.1875 C 183.015625 32.167969 182.996094 32.285156 183.078125 32.296875 C 183.105469 32.238281 183.007812 31.988281 182.90625 31.933594 C 182.859375 31.84375 183.074219 31.84375 182.90625 31.824219 C 182.90625 31.65625 182.957031 31.863281 183.046875 31.824219 C 183.132812 31.785156 183.015625 31.527344 183.078125 31.433594 C 183.003906 31.433594 183.003906 31.523438 183.007812 31.613281 C 182.964844 31.582031 182.914062 31.566406 182.828125 31.582031 C 182.925781 31.503906 182.828125 31.425781 182.828125 31.257812 C 182.894531 31.269531 182.898438 31.226562 182.90625 31.1875 C 182.976562 31.199219 182.976562 31.285156 183.046875 31.289062 C 183.152344 30.851562 182.777344 31.199219 182.867188 30.898438 C 182.933594 30.898438 182.945312 30.941406 183.015625 30.933594 C 182.96875 30.75 182.988281 30.492188 182.867188 30.464844 C 182.75 30.160156 183.105469 29.710938 183.015625 29.316406 C 182.917969 29.226562 182.765625 29.386719 182.765625 29.175781 C 182.875 29.289062 182.886719 29.117188 183.015625 29.136719 C 183.015625 29.078125 182.996094 29 183.046875 28.992188 C 183.042969 28.871094 182.816406 28.960938 182.828125 28.8125 C 182.976562 28.863281 182.769531 28.496094 182.828125 28.378906 C 182.976562 28.367188 183.035156 28.4375 183.007812 28.601562 C 183.117188 28.484375 183.125 28.285156 182.976562 28.167969 C 182.988281 28.050781 183.078125 28.007812 183.117188 27.917969 C 183.058594 27.820312 182.996094 27.730469 182.90625 27.664062 C 182.984375 27.582031 182.90625 27.285156 183.117188 27.230469 C 183.058594 27.128906 183.023438 27.199219 182.90625 27.195312 C 182.855469 26.972656 183.058594 27.011719 183.015625 26.800781 C 183.097656 26.820312 183.09375 26.734375 183.195312 26.769531 C 183.054688 26.34375 183.261719 25.988281 183.234375 25.582031 C 183.382812 25.664062 183.207031 25.507812 183.195312 25.4375 C 183.285156 24.722656 183.425781 24 183.375 23.214844 C 183.304688 23.128906 183.234375 23.050781 183.125 23.101562 C 183.125 23.039062 183.167969 23.027344 183.15625 22.960938 C 183.046875 23.070312 182.804688 22.882812 182.695312 23.101562 C 182.121094 22.992188 181.640625 22.859375 181.117188 23.03125 C 181.039062 23.050781 181.046875 22.980469 181.046875 22.921875 C 180.789062 23.109375 180.140625 22.820312 179.933594 23.175781 C 179.675781 23.195312 179.304688 23.277344 179.214844 23.101562 C 178.867188 23.230469 177.792969 22.949219 177.316406 23.175781 C 177.277344 23.140625 177.316406 23.097656 177.246094 23.03125 C 176.523438 23.230469 175.589844 23.226562 174.703125 23.355469 C 174.59375 23.367188 174.234375 23.417969 174.058594 23.464844 C 173.949219 23.492188 173.867188 23.613281 173.738281 23.644531 C 173.449219 23.714844 173.082031 23.644531 172.804688 23.683594 C 172.613281 23.703125 172.4375 23.84375 172.234375 23.824219 C 171.886719 24.117188 171.332031 24.214844 171.261719 24.691406 C 171.011719 24.714844 170.488281 24.753906 170.328125 24.652344 C 170.386719 24.542969 170.394531 24.378906 170.507812 24.328125 C 170.46875 24.269531 170.394531 24.25 170.398438 24.148438 C 170.347656 24.148438 170.296875 24.15625 170.289062 24.109375 C 170.050781 24.21875 169.847656 24.199219 169.648438 24.25 C 169.480469 24.515625 169.230469 24.691406 168.925781 24.824219 C 168.554688 24.804688 168.300781 24.484375 167.851562 24.644531 C 167.472656 24.78125 167.085938 25.269531 166.847656 25.582031 C 166.765625 25.683594 166.667969 25.691406 166.628906 25.761719 C 166.488281 26.011719 166.40625 26.59375 166.449219 26.730469 C 166.40625 26.785156 166.40625 26.878906 166.339844 26.910156 C 166.40625 27.117188 166.628906 27.175781 166.734375 27.335938 L 166.984375 27.335938 C 168.28125 27.863281 169.957031 27.394531 171.210938 27.585938 C 171.472656 27.394531 171.898438 27.523438 172.285156 27.476562 C 172.839844 27.414062 173.390625 27.195312 173.789062 27.265625 C 173.847656 27.433594 174.183594 27.308594 174.148438 27.15625 C 174.40625 27.148438 174.703125 27.179688 174.832031 27.046875 C 174.878906 27.121094 174.839844 27.121094 174.902344 27.226562 C 175.117188 27.167969 175.5 27.160156 175.945312 27.15625 C 175.996094 27.109375 175.996094 27.019531 176.054688 26.972656 C 176.335938 26.988281 176.800781 27.140625 177.167969 26.902344 C 177.394531 27.046875 177.527344 26.769531 177.667969 26.722656 C 177.765625 26.691406 178.054688 26.722656 178.210938 26.683594 C 178.609375 26.585938 178.710938 26.980469 179.144531 27.078125 C 179.167969 27.175781 179.070312 27.148438 179.070312 27.21875 C 179.128906 27.316406 179.226562 27.433594 179.324219 27.582031 C 179.375 28.347656 179.78125 29.316406 179.464844 29.988281 C 179.542969 30.046875 179.59375 30.121094 179.574219 30.277344 C 179.246094 30.554688 178.796875 30.316406 178.5 30.566406 C 178.421875 30.582031 178.429688 30.515625 178.421875 30.457031 C 178.144531 30.792969 177.417969 30.542969 177.167969 31 C 177.089844 31 177.148438 30.871094 177.128906 30.820312 C 177 30.820312 177.027344 30.863281 176.917969 30.820312 C 176.890625 30.929688 176.972656 30.929688 176.957031 31.039062 C 176.78125 31.027344 176.742188 31.21875 176.632812 31.078125 C 176.628906 30.917969 176.808594 30.941406 176.8125 30.785156 C 176.738281 30.703125 176.503906 30.761719 176.421875 30.785156 C 176.363281 30.839844 176.382812 30.96875 176.3125 31.007812 C 176.261719 31.007812 176.203125 30.859375 176.171875 30.96875 C 176.117188 30.949219 176.171875 30.933594 176.171875 30.898438 C 176.117188 30.8125 176.054688 31.019531 175.992188 31.039062 C 175.796875 30.949219 175.425781 31.058594 175.378906 31.21875 C 174.929688 31 174.789062 31.476562 174.375 31.257812 C 174.265625 31.269531 174.332031 31.453125 174.234375 31.472656 C 174.175781 31.417969 174.175781 31.308594 174.125 31.257812 C 174.105469 31.304688 174.105469 31.347656 174.054688 31.4375 C 173.71875 31.230469 173.507812 31.5625 173.230469 31.621094 C 173.21875 31.546875 173.238281 31.503906 173.300781 31.507812 C 172.804688 31.457031 172.523438 31.546875 172.117188 31.730469 C 172.144531 31.601562 171.949219 31.675781 171.9375 31.585938 C 171.796875 31.714844 171.667969 31.644531 171.511719 31.769531 C 171.492188 31.695312 171.53125 31.671875 171.542969 31.625 C 171.390625 31.59375 171.273438 31.84375 171.222656 31.695312 C 171.191406 31.722656 171.234375 31.890625 171.082031 31.878906 C 171.144531 31.613281 170.777344 31.902344 170.652344 31.734375 C 170.578125 31.800781 170.515625 31.863281 170.46875 31.949219 C 170.476562 32.039062 170.535156 31.902344 170.617188 31.949219 C 170.617188 32 170.613281 32.050781 170.65625 32.058594 C 170.386719 32.011719 170.316406 31.773438 169.976562 31.917969 C 169.886719 31.949219 169.808594 32.03125 169.761719 32.097656 C 169.621094 32.078125 169.777344 31.972656 169.652344 31.917969 C 169.578125 31.992188 169.539062 31.882812 169.472656 31.949219 C 169.5 32.03125 169.660156 31.972656 169.613281 32.128906 C 169.15625 32.160156 169.273438 32.058594 168.972656 32.308594 C 168.953125 32.238281 169.066406 32.1875 169.003906 31.988281 L 168.894531 31.988281 C 168.796875 32.019531 169.003906 32.070312 168.894531 32.128906 C 168.8125 32.128906 168.785156 32.066406 168.675781 32.089844 C 168.546875 32.136719 168.664062 32.207031 168.605469 32.304688 C 168.558594 32.296875 168.539062 32.308594 168.535156 32.34375 C 168.308594 32.324219 168.417969 32.101562 168.320312 32.019531 C 168.191406 32 168.230469 32.148438 168.109375 32.128906 C 168.109375 32.058594 168.011719 32.082031 168.039062 31.988281 C 167.832031 32.109375 167.683594 32.070312 167.464844 32.207031 C 167.472656 32.089844 167.324219 32.128906 167.324219 32.027344 C 167.261719 32.101562 167.195312 32.089844 167.253906 32.207031 L 167.035156 32.207031 C 167.164062 31.84375 166.714844 32.066406 166.496094 32.066406 C 166.269531 32.066406 166.132812 31.890625 166.0625 31.992188 C 166.023438 31.863281 166.222656 31.960938 166.207031 31.851562 C 166.089844 31.949219 165.96875 31.820312 165.914062 31.960938 C 165.503906 31.917969 165.113281 31.554688 164.699219 31.527344 C 164.597656 31.355469 164.308594 31.226562 164.128906 31.246094 C 163.617188 30.929688 162.960938 30.453125 162.910156 29.917969 C 162.621094 29.753906 162.851562 29.175781 162.691406 28.949219 C 162.757812 28.515625 162.796875 28.039062 162.871094 27.621094 C 163.078125 27.453125 163.144531 27.226562 163.195312 26.933594 C 163.535156 26.703125 163.601562 26.394531 163.765625 26.039062 C 163.960938 25.953125 164.121094 25.84375 164.199219 25.644531 C 164.636719 25.585938 164.878906 25.25 165.273438 25.25 C 166.109375 24.761719 167.082031 24.464844 167.820312 23.8125 C 167.839844 23.492188 167.78125 23.199219 167.601562 22.988281 C 167.621094 22.933594 167.632812 22.988281 167.671875 22.988281 C 167.632812 22.859375 167.632812 22.683594 167.492188 22.664062 C 167.523438 22.257812 167.171875 21.980469 167.242188 21.507812 C 167.195312 21.417969 167.117188 21.375 167.023438 21.335938 C 166.625 21.691406 166.238281 21.742188 165.980469 22.195312 C 165.625 22.238281 165.601562 22.605469 165.265625 22.664062 C 164.65625 23.527344 163.820312 24.21875 163.007812 24.785156 C 162.851562 24.898438 162.828125 25.136719 162.648438 25.21875 C 162.742188 25.472656 162.601562 25.84375 162.433594 25.941406 C 162.488281 26.457031 162.390625 26.742188 162.292969 27.160156 C 162.371094 27.214844 162.402344 27.25 162.507812 27.230469 C 162.507812 27.335938 162.398438 27.316406 162.398438 27.414062 C 162.539062 27.703125 162.488281 28.34375 162.363281 28.671875 C 162.453125 28.703125 162.441406 28.832031 162.433594 28.960938 C 162.3125 28.949219 162.378906 29.117188 162.222656 29.070312 C 162.121094 29.117188 162.332031 29.148438 162.292969 29.25 L 162.183594 29.25 C 162.144531 29.457031 162.289062 29.484375 162.363281 29.574219 C 162.292969 29.640625 162.304688 29.78125 162.152344 29.753906 C 162.289062 30.308594 161.824219 30.613281 161.863281 31.082031 C 161.972656 31.109375 161.933594 30.988281 162.042969 31.011719 C 162.015625 31.136719 162.105469 31.160156 162.042969 31.230469 C 161.925781 31.296875 161.785156 31.226562 161.644531 31.265625 C 161.648438 31.34375 161.804688 31.269531 161.824219 31.335938 C 161.757812 31.640625 161.726562 31.96875 161.574219 32.230469 C 161.605469 32.347656 161.605469 32.492188 161.792969 32.445312 C 161.675781 32.605469 161.554688 32.542969 161.539062 32.769531 C 161.574219 32.75 161.597656 32.730469 161.648438 32.734375 C 161.578125 32.804688 161.546875 32.917969 161.4375 32.949219 C 161.503906 33.050781 161.554688 33.167969 161.578125 33.304688 C 161.496094 33.324219 161.449219 33.386719 161.398438 33.445312 C 161.503906 33.414062 161.4375 33.621094 161.328125 33.65625 C 161.636719 34.039062 160.980469 34.40625 161.078125 34.804688 C 160.859375 34.929688 160.910156 35.117188 160.71875 35.277344 C 160.539062 35.335938 160.261719 35.21875 160.105469 35.277344 C 160.105469 35.195312 159.984375 35.257812 159.886719 35.136719 C 159.855469 35.167969 159.816406 35.207031 159.777344 35.246094 C 159.6875 35.246094 159.65625 35.179688 159.597656 35.136719 C 159.574219 35.195312 159.425781 35.128906 159.449219 35.246094 C 159.347656 35.089844 159.042969 35.097656 158.949219 35.285156 C 158.613281 35.226562 158.371094 35.304688 158.085938 35.355469 C 157.769531 35.214844 157.53125 34.992188 157.332031 34.742188 C 157.332031 34.324219 157.160156 33.890625 157.261719 33.445312 C 157.277344 33.375 157.371094 33.082031 157.371094 32.910156 C 157.367188 32.621094 157.257812 32.496094 157.339844 32.226562 C 157.378906 32.097656 157.539062 31.992188 157.480469 31.761719 C 157.625 31.734375 157.636719 31.582031 157.625 31.398438 C 157.808594 31.050781 158.09375 30.761719 158.125 30.175781 C 158.332031 30.117188 158.226562 29.753906 158.484375 29.742188 C 158.484375 29.15625 158.773438 28.566406 158.734375 27.941406 C 158.824219 27.785156 158.960938 27.675781 158.878906 27.507812 C 158.890625 27.457031 158.910156 27.507812 158.949219 27.507812 C 158.78125 27.214844 159.101562 27.027344 158.878906 26.792969 C 159.019531 26.730469 158.878906 26.378906 159.019531 26.328125 C 158.898438 26.238281 159.027344 25.949219 158.949219 25.785156 L 159.019531 25.785156 C 158.789062 25.289062 158.671875 24.5625 158.589844 23.988281 C 158.445312 23.859375 158.484375 23.929688 158.40625 23.734375 C 157.878906 24.019531 157.339844 24.542969 157.042969 25.027344 C 156.542969 25.207031 156.328125 25.675781 155.640625 25.675781 C 155.511719 25.554688 155.390625 25.433594 155.179688 25.394531 C 155.140625 25.050781 154.984375 24.820312 154.960938 24.457031 C 154.597656 23.949219 154.414062 23.019531 154.925781 22.546875 C 155.738281 22.148438 156.402344 21.335938 156.824219 20.425781 C 157.519531 19.65625 157.9375 18.621094 158.441406 17.65625 C 158.386719 17.535156 158.28125 17.484375 158.1875 17.40625 C 158.164062 17.4375 158.09375 17.425781 158.078125 17.476562 C 158.09375 17.34375 157.804688 17.457031 157.757812 17.335938 C 157.640625 17.398438 157.65625 17.375 157.507812 17.40625 C 157.070312 17.148438 156.59375 17.15625 156.285156 16.683594 C 155.886719 16.652344 155.726562 16.355469 155.390625 16.179688 C 155.441406 15.960938 155.183594 15.941406 155.070312 15.820312 C 155.011719 15.753906 155 15.605469 154.925781 15.535156 C 154.746094 15.335938 154.34375 15.070312 154.175781 14.851562 C 154.085938 14.734375 154.070312 14.542969 153.996094 14.417969 C 153.78125 14.070312 153.09375 13.621094 153.421875 13.019531 C 153.722656 12.953125 154.136719 12.652344 154.394531 12.800781 C 154.734375 12.515625 155.089844 12.492188 155.46875 12.296875 C 155.769531 12.492188 156 12.304688 156.117188 12.257812 C 156.324219 12.175781 156.496094 12.226562 156.691406 12.039062 C 156.984375 12.140625 157.3125 11.949219 157.550781 12.148438 C 157.75 12.058594 157.9375 12.027344 158.164062 12.109375 C 158.453125 12.089844 158.699219 12 158.917969 12.039062 C 159.644531 12.019531 160.082031 11.664062 160.921875 11.644531 C 160.96875 11.644531 160.957031 11.582031 160.960938 11.535156 C 161.414062 11.585938 161.816406 11.214844 162.253906 11.425781 C 162.46875 11.40625 162.507812 11.425781 162.648438 11.316406 C 163.070312 11.753906 164.320312 11.503906 164.261719 12.394531 C 164.328125 12.457031 164.359375 12.5625 164.441406 12.605469 C 164.347656 12.742188 164.382812 12.890625 164.511719 12.96875 C 164.332031 13.089844 164.511719 13.496094 164.371094 13.472656 C 164.429688 13.871094 164.089844 13.992188 164.121094 14.367188 C 164.042969 14.355469 164.023438 14.394531 163.980469 14.40625 C 163.980469 14.472656 164.023438 14.484375 164.011719 14.546875 C 163.914062 14.546875 163.824219 14.742188 163.902344 14.800781 C 163.773438 15.101562 163.507812 15.269531 163.257812 15.453125 C 163.285156 15.65625 163.070312 15.871094 162.828125 15.921875 C 162.761719 15.921875 162.742188 15.980469 162.757812 16.066406 C 162.570312 16.082031 162.429688 16.308594 162.292969 16.386719 C 162.179688 16.453125 162.054688 16.515625 161.933594 16.496094 C 161.933594 16.621094 161.894531 16.8125 161.722656 16.710938 C 161.65625 16.804688 161.746094 16.84375 161.648438 16.921875 C 161.128906 17.097656 161.019531 17.695312 160.503906 17.929688 C 160.589844 18.367188 160.132812 18.535156 160.183594 18.898438 C 159.914062 19.082031 159.796875 19.417969 159.609375 19.691406 C 159.355469 19.621094 159.339844 20.070312 159.5 19.941406 C 159.488281 20.011719 159.398438 20.007812 159.429688 20.121094 C 160.222656 20.417969 161.066406 20.722656 161.367188 21.59375 C 161.753906 21.675781 162.164062 21.425781 162.410156 21.160156 C 162.726562 21.117188 162.871094 21.027344 162.949219 20.800781 C 163.367188 20.773438 163.875 20.34375 164.09375 20.117188 C 164.546875 20.03125 164.984375 19.457031 165.386719 19.328125 C 165.457031 18.992188 165.910156 18.917969 166 18.503906 C 166.078125 18.515625 166.097656 18.476562 166.140625 18.464844 C 166.28125 18.140625 166.261719 17.832031 166.320312 17.566406 C 165.714844 16.921875 166.289062 15.960938 166.789062 15.523438 C 166.84375 15.046875 167.171875 14.851562 167.332031 14.476562 C 167.542969 14.425781 167.808594 14.179688 168.117188 14.117188 C 168.554688 14.027344 169.140625 14.070312 169.582031 14.335938 C 170.105469 14.398438 170.4375 14.664062 170.695312 14.910156 C 171.289062 15.464844 170.933594 16.722656 170.734375 17.644531 C 170.816406 17.878906 170.875 18.40625 170.734375 18.433594 C 170.863281 18.96875 170.675781 19.15625 170.664062 19.839844 C 170.617188 20.066406 170.625 20.4375 170.59375 20.773438 C 170.566406 21.039062 170.65625 21.238281 170.59375 21.527344 C 170.578125 21.601562 170.503906 21.644531 170.484375 21.710938 C 170.398438 22.039062 170.652344 22.140625 170.695312 22.496094 C 170.722656 22.691406 170.507812 22.992188 170.625 23.179688 C 170.707031 23.027344 170.792969 22.871094 170.835938 22.675781 C 172.089844 21.625 174.214844 21.433594 175.746094 21.097656 C 175.84375 21.070312 175.816406 21.167969 175.886719 21.167969 C 175.945312 21.050781 176.113281 21.03125 176.101562 20.84375 C 176.210938 20.890625 176.242188 20.871094 176.320312 20.804688 C 176.304688 20.4375 176.628906 20.226562 176.460938 19.910156 C 176.742188 19.832031 176.644531 19.378906 176.929688 19.296875 C 176.902344 18.683594 177.722656 18.453125 177.894531 18.039062 C 178.105469 18.078125 178.105469 17.898438 178.183594 17.785156 C 178.363281 17.8125 178.511719 17.523438 178.6875 17.535156 C 178.691406 17.503906 178.671875 17.503906 178.652344 17.496094 C 178.722656 17.496094 178.871094 17.417969 178.832031 17.214844 C 179.167969 16.972656 179.277344 16.503906 179.65625 16.316406 C 179.695312 16.1875 179.765625 16.089844 179.871094 16.027344 C 180.015625 15.375 180.332031 14.882812 180.550781 14.304688 "/>
<path style=" stroke:none;fill-rule:evenodd;fill:rgb(0%,0%,0%);fill-opacity:1;" d="M 91.449219 32.058594 C 91.449219 32.140625 91.515625 32.160156 91.480469 32.269531 C 91.328125 32.257812 91.390625 32.472656 91.230469 32.453125 C 91.1875 33.007812 90.851562 33.425781 90.695312 34.03125 C 91.191406 34.160156 91.328125 33.671875 91.738281 33.601562 C 91.835938 33.25 92.0625 32.953125 92.3125 32.664062 C 92.324219 32.175781 92.09375 31.929688 91.699219 31.769531 C 91.617188 31.863281 91.585938 32.007812 91.449219 32.058594 M 94.390625 31.734375 C 94.25 31.730469 94.449219 31.542969 94.28125 31.523438 C 94.183594 31.585938 94.3125 31.851562 94.390625 31.734375 M 94.320312 31.445312 C 94.339844 31.328125 94.160156 31.226562 94.140625 31.265625 C 94.222656 31.304688 94.195312 31.445312 94.320312 31.445312 M 92.957031 24.546875 C 93.109375 24.5625 93.199219 24.308594 93.027344 24.296875 C 92.972656 24.425781 93.046875 24.457031 92.957031 24.546875 M 93.027344 24.257812 C 93.03125 24.214844 93.066406 24.230469 93.097656 24.257812 C 93.15625 24.136719 93.007812 23.933594 93.058594 24.039062 C 93.066406 24.109375 92.898438 24.1875 93.027344 24.257812 M 93.386719 34.355469 C 93.535156 34.199219 93.519531 33.839844 93.847656 33.78125 C 93.855469 34.414062 92.910156 34.386719 93.027344 34.898438 C 92.324219 35.335938 91.644531 35.316406 90.554688 35.289062 C 90.296875 35.4375 90.117188 35.414062 89.914062 35.652344 C 89.785156 35.601562 89.699219 35.464844 89.769531 35.328125 C 89.519531 35.324219 89.242188 35.148438 88.980469 35.148438 C 88.910156 35.011719 88.722656 34.898438 88.800781 34.714844 C 88.765625 34.632812 88.675781 34.601562 88.546875 34.605469 C 88.484375 34.25 88.324219 34 88.046875 33.851562 C 87.886719 33.414062 87.886719 32.664062 88.117188 32.269531 C 88.21875 32.097656 88.453125 31.992188 88.582031 31.804688 C 88.621094 31.742188 88.613281 31.625 88.652344 31.554688 C 88.703125 31.464844 88.824219 31.417969 88.871094 31.34375 C 88.949219 31.199219 88.960938 30.992188 89.050781 30.839844 C 89.109375 30.75 89.289062 30.734375 89.191406 30.585938 C 89.558594 30.40625 89.546875 29.839844 89.875 29.621094 C 89.75 29.585938 89.898438 29.503906 89.804688 29.4375 C 89.90625 29.277344 90.054688 29.167969 90.09375 28.933594 C 90.335938 28.910156 90.277344 28.65625 90.382812 28.503906 C 90.472656 28.359375 90.714844 28.246094 90.8125 28.070312 C 90.832031 28.039062 90.789062 27.960938 90.8125 27.929688 C 90.992188 27.675781 91.210938 27.484375 91.351562 27.246094 C 91.371094 27.214844 91.320312 27.167969 91.316406 27.175781 C 91.429688 26.980469 91.5 26.804688 91.597656 26.671875 C 91.636719 26.621094 91.714844 26.644531 91.746094 26.601562 C 92.046875 26.066406 92.246094 25.476562 92.570312 24.949219 C 92.699219 24.289062 92.800781 23.953125 92.5 23.367188 C 92.261719 23.046875 91.828125 22.910156 91.566406 22.613281 C 91.339844 22.601562 91.199219 22.503906 91.0625 22.398438 C 90.972656 22.417969 90.878906 22.367188 90.773438 22.398438 C 90.585938 22.453125 90.683594 22.582031 90.5625 22.722656 C 90.234375 23.082031 89.730469 22.960938 89.269531 23.011719 C 88.765625 22.871094 88.285156 22.730469 87.90625 22.328125 C 87.890625 22.25 87.929688 22.230469 87.945312 22.179688 C 87.453125 22.050781 87.441406 21.4375 87.121094 21.136719 C 87.269531 20.65625 87.035156 20.324219 87.191406 19.839844 C 87.234375 19.695312 87.480469 19.285156 87.660156 19.082031 C 87.808594 18.917969 88.039062 18.8125 88.164062 18.652344 C 88.207031 18.601562 88.195312 18.476562 88.234375 18.4375 C 88.4375 18.226562 88.804688 18.058594 89.019531 17.933594 C 89.28125 18.058594 89.699219 17.953125 89.878906 17.722656 C 89.964844 17.703125 89.929688 17.785156 89.988281 17.792969 C 90.132812 17.671875 90.214844 17.492188 90.3125 17.328125 C 90.484375 17.492188 90.148438 17.792969 90.058594 18.011719 C 90.144531 18.117188 90.257812 18.199219 90.132812 18.335938 C 90.132812 18.425781 90.265625 18.394531 90.3125 18.445312 C 90.265625 18.503906 90.214844 18.566406 90.242188 18.695312 C 90.3125 18.742188 90.324219 18.851562 90.382812 18.910156 C 90.285156 19.128906 90.515625 19.40625 90.414062 19.625 C 90.703125 20.238281 91.238281 20.546875 91.558594 20.992188 C 91.773438 21.289062 92.015625 21.621094 92.382812 21.820312 L 92.382812 21.921875 C 93.039062 22.527344 93.972656 23.335938 93.957031 24.730469 C 93.894531 24.769531 93.882812 24.871094 93.816406 24.910156 C 93.695312 26.15625 93.046875 27.445312 92.453125 28.613281 C 92.445312 28.96875 92.511719 29.304688 92.3125 29.585938 C 92.390625 29.800781 92.226562 30.019531 92.421875 30.160156 C 92.445312 30.257812 92.351562 30.230469 92.351562 30.304688 C 92.414062 30.296875 92.421875 30.335938 92.382812 30.34375 C 93.03125 30.546875 93.554688 30.753906 94.066406 31.167969 C 94.085938 30.859375 93.617188 30.898438 93.707031 30.625 C 94.300781 30.84375 94.6875 31.503906 94.429688 32.167969 C 94.324219 32.136719 94.339844 32.21875 94.25 32.199219 C 94.113281 32.910156 93.875 33.378906 93.566406 33.929688 C 93.496094 34.050781 93.339844 34.167969 93.386719 34.359375 "/>
<path style=" stroke:none;fill-rule:evenodd;fill:rgb(0%,0%,0%);fill-opacity:1;" d="M 141.449219 32.039062 C 141.519531 32.199219 141.367188 32.109375 141.308594 32.179688 C 141.140625 32.398438 141.320312 32.792969 140.988281 32.898438 C 141.0625 33.027344 141.0625 33.089844 140.988281 33.21875 C 141.023438 33.226562 141.042969 33.257812 141.058594 33.289062 C 141.597656 33.128906 142.074219 33.050781 142.453125 32.75 C 142.316406 32.582031 142.332031 32.378906 142.132812 32.355469 C 142.253906 32.265625 142.125 32.199219 142.097656 32.070312 C 141.886719 32.25 141.734375 31.890625 141.457031 32.03125 M 130.875 27.117188 C 130.898438 27.269531 131.039062 27.308594 131.125 27.40625 C 131.683594 27.476562 132.570312 27.378906 133.132812 27.011719 C 133.207031 27 133.226562 27.039062 133.273438 27.046875 C 133.332031 27 133.414062 26.972656 133.414062 26.863281 C 133.949219 26.582031 134.277344 26.308594 134.667969 25.898438 C 135.285156 25.523438 135.589844 24.832031 136.175781 24.417969 C 136.464844 23.992188 136.875 23.683594 137.070312 23.160156 C 137.320312 23.089844 137.339844 22.78125 137.570312 22.695312 C 137.800781 22.121094 138.214844 21.675781 138.324219 21.078125 C 138.304688 21 138.246094 20.960938 138.214844 20.898438 C 138.472656 20.566406 138.398438 19.910156 138.574219 19.496094 L 138.683594 19.496094 C 138.929688 18.949219 139.382812 18.308594 139.867188 17.878906 C 141.242188 17.476562 142.632812 19.582031 141.332031 20.394531 C 141.261719 20.722656 141.191406 20.824219 140.941406 20.96875 C 140.953125 21.058594 140.910156 21.375 140.980469 21.289062 C 140.992188 21.652344 141.140625 22.066406 141.480469 22.296875 C 141.699219 22.308594 141.753906 22.285156 141.875 22.398438 C 142.125 22.378906 142.265625 22.476562 142.445312 22.4375 C 142.621094 22.546875 143.566406 22.4375 144.09375 22.582031 C 144.144531 22.542969 144.230469 22.546875 144.273438 22.507812 C 144.6875 22.585938 145.175781 22.507812 145.742188 22.507812 C 146.746094 22.507812 147.972656 22.703125 148.898438 22.476562 C 149.382812 22.355469 149.804688 22.058594 150.191406 22.398438 C 150.789062 22.304688 151.203125 23.070312 151.660156 23.445312 C 151.609375 23.554688 151.679688 23.601562 151.660156 23.769531 C 151.59375 23.753906 151.582031 23.800781 151.621094 23.800781 C 151.273438 23.820312 151.023438 23.953125 150.757812 24.128906 C 150.257812 24.453125 149.703125 24.675781 149.144531 25.027344 C 148.976562 25.007812 148.667969 25.140625 148.570312 25.308594 C 147.746094 25.574219 146.871094 26.289062 146.203125 26.714844 C 145.796875 27.039062 145.414062 27.378906 144.980469 27.683594 C 143.90625 28.644531 142.917969 29.621094 142.113281 30.773438 C 142.125 30.820312 142.175781 30.832031 142.183594 30.882812 C 142.300781 30.917969 142.261719 30.792969 142.324219 30.773438 C 142.53125 30.851562 142.550781 30.929688 142.828125 30.953125 C 142.789062 31.007812 142.789062 31.046875 142.828125 31.097656 C 142.980469 31.140625 142.988281 31.109375 143.117188 31.058594 C 142.949219 31.265625 143.246094 31.046875 143.296875 31.238281 C 143.390625 31.238281 143.375 31.128906 143.476562 31.128906 C 143.496094 31.207031 143.410156 31.179688 143.40625 31.238281 C 143.574219 31.304688 143.734375 31.355469 143.90625 31.492188 C 143.992188 31.386719 144.035156 31.457031 144.195312 31.453125 C 144.191406 31.644531 144.371094 31.941406 144.628906 31.992188 C 144.648438 32.226562 144.480469 32.5625 144.660156 32.714844 C 144.492188 32.96875 144.410156 33.238281 144.121094 33.433594 C 144.046875 33.417969 144.046875 33.335938 143.976562 33.324219 C 143.300781 33.78125 142.554688 34.207031 142.042969 34.328125 C 141.988281 34.136719 142.285156 34.1875 142.402344 34.078125 C 142.222656 34.039062 142.027344 34.148438 141.933594 34.367188 C 141.769531 34.34375 141.71875 34.25 141.609375 34.265625 C 141.605469 34.269531 141.558594 34.414062 141.609375 34.445312 C 141.339844 34.664062 141.050781 34.433594 140.820312 34.695312 C 140.882812 34.800781 140.914062 34.730469 141.03125 34.734375 C 141 34.917969 140.640625 34.929688 140.640625 34.769531 C 140.273438 35.027344 139.945312 34.5625 139.996094 34.265625 C 139.707031 34.039062 139.3125 33.871094 139.242188 33.472656 C 139.222656 33.34375 139.257812 32.761719 139.28125 32.683594 C 139.308594 32.601562 139.550781 32.160156 139.640625 32.03125 C 139.820312 31.773438 140.097656 31.554688 140.214844 31.355469 C 140.167969 31.226562 140.214844 31.21875 140.183594 31.101562 C 140.425781 30.910156 140.574219 30.613281 140.863281 30.457031 C 141.109375 29.734375 141.550781 29.40625 141.90625 28.804688 C 142.0625 28.804688 142.007812 28.691406 142.117188 28.804688 C 142.117188 28.753906 142.117188 28.703125 142.15625 28.695312 C 142.144531 28.644531 142.113281 28.710938 142.046875 28.695312 C 142.097656 28.523438 142.214844 28.414062 142.371094 28.335938 C 142.390625 28.464844 142.261719 28.4375 142.261719 28.554688 C 142.445312 28.492188 142.464844 28.277344 142.480469 28.121094 C 142.550781 28.109375 142.589844 28.128906 142.589844 28.195312 C 142.980469 27.929688 143.175781 27.464844 143.628906 27.257812 C 143.71875 27.128906 143.863281 27.011719 143.738281 26.863281 C 144.195312 26.941406 144.34375 26.378906 144.777344 26.21875 C 145.085938 25.722656 145.742188 25.582031 146.070312 25.101562 C 146.273438 25.140625 146.460938 24.878906 146.609375 24.742188 C 147.277344 24.359375 147.929688 24.058594 148.507812 23.554688 C 148.386719 23.621094 148.320312 23.65625 148.21875 23.664062 C 148.109375 23.5625 148.328125 23.492188 148.359375 23.414062 C 147.78125 23.453125 147.195312 23.394531 146.671875 23.34375 C 146.589844 23.328125 146.429688 23.433594 146.3125 23.414062 C 146.179688 23.386719 146.011719 23.433594 145.8125 23.453125 C 145.46875 23.476562 145.085938 23.324219 144.808594 23.484375 C 144.632812 23.414062 144.363281 23.40625 144.234375 23.484375 C 143.765625 23.308594 143.445312 23.507812 143.121094 23.453125 C 143.070312 23.464844 143.136719 23.496094 143.121094 23.5625 C 143.027344 23.585938 143.050781 23.484375 143.011719 23.453125 C 142.851562 23.5625 142.671875 23.710938 142.480469 23.523438 C 142.125 23.769531 141.429688 23.335938 141.296875 23.523438 C 141.152344 23.59375 140.988281 23.453125 140.863281 23.632812 C 140.175781 23.476562 139.925781 22.683594 139.289062 22.40625 C 138.875 22.753906 138.492188 23.308594 138.285156 23.734375 C 137.867188 24.386719 136.945312 25.304688 136.496094 26.039062 C 136.328125 25.960938 136.230469 26.21875 136.246094 26.433594 C 135.859375 26.820312 135.421875 27.167969 135.171875 27.691406 C 135.0625 27.730469 135.0625 27.632812 134.917969 27.730469 C 134.882812 27.84375 134.917969 27.804688 134.917969 27.949219 C 134.824219 27.921875 134.578125 27.960938 134.558594 28.199219 C 134.269531 28.195312 134.238281 28.179688 134.128906 28.414062 C 134.078125 28.398438 134.128906 28.378906 134.128906 28.34375 C 133.652344 28.613281 133.292969 28.929688 132.765625 29.058594 C 132.777344 29 132.734375 28.992188 132.726562 28.949219 C 132.695312 29.007812 132.578125 29.066406 132.65625 28.949219 C 131.949219 29.394531 130.945312 29.121094 130.289062 29.128906 C 129.792969 29.59375 129.523438 28.734375 129.175781 28.917969 C 128.957031 28.640625 129.070312 28.160156 128.886719 27.871094 C 128.859375 27.832031 128.800781 27.859375 128.816406 27.871094 C 128.722656 27.785156 128.648438 27.554688 128.632812 27.476562 C 128.5625 26.949219 128.941406 26.316406 129.136719 25.824219 L 129.246094 25.824219 C 129.445312 25.167969 129.960938 24.75 130.109375 24.136719 C 130.320312 24.089844 130.3125 23.683594 130.539062 23.59375 C 130.570312 23.492188 130.488281 23.503906 130.5 23.414062 C 130.675781 23.375 130.648438 23.128906 130.789062 23.050781 C 130.820312 22.980469 130.679688 22.929688 130.789062 22.902344 C 130.371094 22.554688 130.109375 22.058594 129.855469 21.535156 C 130.074219 21.15625 129.59375 20.730469 129.855469 20.167969 C 130.03125 20.308594 130.0625 20.453125 130.179688 20.601562 C 131.015625 20.851562 131.496094 20.8125 132.367188 20.601562 C 132.625 20.75 133.226562 20.859375 133.152344 21.101562 C 133.464844 21.367188 133.542969 21.644531 133.792969 21.96875 C 133.59375 21.949219 133.921875 22.097656 133.722656 22.078125 C 133.890625 22.328125 133.9375 22.492188 134.15625 22.691406 C 134.058594 22.734375 134.148438 22.902344 134.046875 23.011719 C 134.058594 23.121094 134.140625 23.15625 134.226562 23.195312 C 134.128906 23.496094 133.644531 23.40625 133.652344 23.800781 C 133.421875 23.902344 133.242188 23.890625 133.042969 24.050781 C 132.894531 24.011719 132.878906 24.046875 132.71875 24.050781 C 132.648438 24.34375 132.386719 24.214844 132.359375 24.554688 C 132.320312 24.5625 132.296875 24.554688 132.289062 24.523438 C 131.929688 25.027344 131.464844 25.59375 131.355469 26.140625 C 131.039062 26.304688 131.125 26.703125 130.925781 26.933594 C 131.035156 26.820312 130.898438 27.21875 130.855469 27.109375 "/>
<path style=" stroke:none;fill-rule:evenodd;fill:rgb(0%,0%,0%);fill-opacity:1;" d="M 113.804688 26.109375 L 113.804688 26.394531 C 113.652344 26.613281 113.710938 27.039062 113.484375 27.1875 C 113.566406 27.375 113.613281 27.625 113.84375 27.800781 C 113.910156 27.804688 113.921875 27.753906 113.984375 27.761719 C 114.191406 27.96875 114.492188 28.089844 114.847656 28.082031 C 115.425781 28.070312 115.753906 27.605469 115.960938 27.117188 C 116.019531 26.546875 116.398438 25.214844 116.210938 24.8125 C 115.464844 25.296875 114.488281 25.492188 113.8125 26.101562 M 115.632812 20.722656 C 115.496094 20.722656 115.496094 20.851562 115.382812 20.871094 C 115.375 20.671875 115.496094 20.507812 115.453125 20.328125 C 115.402344 20.277344 115.234375 20.375 115.242188 20.1875 C 115.5625 20.058594 115.695312 19.824219 116.101562 19.898438 C 117.003906 20.050781 117.234375 21.527344 117.609375 22.121094 C 117.632812 22.75 117.863281 23.625 117.789062 24.386719 C 117.769531 24.601562 117.644531 24.992188 117.75 25.285156 C 117.753906 25.375 117.699219 25.398438 117.640625 25.425781 C 117.789062 25.613281 117.660156 25.695312 117.640625 25.859375 C 117.652344 25.910156 117.683594 25.84375 117.75 25.859375 C 117.71875 25.960938 117.71875 25.96875 117.75 26.078125 C 117.691406 26.089844 117.683594 26.050781 117.679688 26.007812 C 117.691406 26.097656 117.570312 26.246094 117.640625 26.367188 C 117.71875 26.335938 117.570312 26.148438 117.75 26.15625 C 117.761719 26.214844 117.722656 26.226562 117.679688 26.226562 C 117.761719 26.34375 117.703125 26.367188 117.75 26.515625 C 117.683594 26.585938 117.640625 26.546875 117.609375 26.585938 C 117.640625 26.675781 117.71875 26.722656 117.679688 26.878906 C 117.621094 26.882812 117.613281 26.84375 117.570312 26.839844 C 117.703125 27.089844 117.664062 27.566406 117.5 27.773438 C 117.542969 27.785156 117.652344 27.769531 117.609375 27.953125 C 117.511719 27.980469 117.535156 27.882812 117.464844 27.882812 C 117.574219 28.066406 117.570312 28.335938 117.433594 28.457031 C 117.3125 28.398438 117.535156 28.195312 117.363281 28.167969 C 117.332031 28.457031 117.113281 28.5625 117.113281 28.890625 C 116.84375 28.941406 116.707031 29.128906 116.753906 29.324219 C 116.460938 29.535156 116.300781 29.878906 115.890625 29.96875 C 115.570312 29.910156 115.113281 30.15625 114.816406 29.898438 C 113.296875 29.78125 112.191406 29.25 111.230469 28.566406 C 111.019531 28.121094 110.683594 27.800781 110.628906 27.199219 C 110.542969 27.117188 110.542969 26.949219 110.449219 26.878906 C 110.492188 26.355469 110.191406 25.949219 110.339844 25.621094 C 110.125 25.226562 110.175781 24.613281 110.195312 24.179688 C 110.214844 23.773438 110.042969 23.269531 110.046875 22.8125 C 110.066406 22 109.992188 20.988281 110.15625 20.226562 C 110.195312 20.058594 110.3125 19.933594 110.230469 19.722656 C 110.320312 19.621094 110.402344 19.574219 110.339844 19.398438 C 110.570312 19.109375 110.691406 18.484375 111.089844 18.246094 C 111.089844 18.160156 111.15625 18.140625 111.128906 18.03125 C 112.015625 17.59375 112.789062 18.417969 112.925781 19.21875 C 112.820312 19.710938 112.609375 20.226562 112.351562 20.546875 C 112.183594 21.804688 112.171875 23.863281 112.28125 25.21875 C 112.738281 25.089844 113.355469 24.40625 113.855469 24.535156 C 113.871094 24.417969 114.101562 24.515625 114.109375 24.394531 C 114.109375 24.296875 114.011719 24.476562 114.039062 24.324219 C 114.09375 24.324219 114.128906 24.347656 114.148438 24.394531 C 114.261719 24.25 114.550781 24.359375 114.609375 24.140625 C 115.242188 23.988281 116.230469 23.898438 116.4375 23.207031 C 116.488281 22.398438 116.449219 21.523438 115.972656 20.871094 C 115.824219 20.859375 115.78125 20.75 115.644531 20.722656 "/>
<path style=" stroke:none;fill-rule:evenodd;fill:rgb(0%,0%,0%);fill-opacity:1;" d="M 121.765625 34.671875 C 121.855469 34.710938 121.9375 34.902344 121.765625 34.921875 C 121.660156 34.585938 121.726562 34.195312 121.691406 33.664062 C 121.925781 33.730469 121.726562 34.121094 121.800781 34.277344 C 121.847656 34.109375 121.910156 34.613281 121.765625 34.671875 "/>
<path style=" stroke:none;fill-rule:evenodd;fill:rgb(0%,0%,0%);fill-opacity:1;" d="M 122.085938 35.820312 C 121.96875 35.785156 122.027344 35.582031 121.976562 35.640625 C 121.886719 35.625 122.015625 35.542969 122.015625 35.496094 C 122.167969 35.59375 122.074219 35.675781 122.085938 35.820312 "/>
<path style=" stroke:none;fill-rule:evenodd;fill:rgb(0%,0%,0%);fill-opacity:1;" d="M 183.496094 47.167969 C 183.484375 47.121094 183.453125 47.097656 183.386719 47.097656 C 183.421875 46.972656 183.472656 47.066406 183.53125 47.097656 C 183.5625 47.160156 183.421875 47.214844 183.53125 47.238281 C 183.511719 47.328125 183.351562 47.257812 183.386719 47.167969 Z M 183.496094 47.167969 "/>
</g>
</svg>
